<?xml version="1.0" standalone="no"?>
<!DOCTYPE svg PUBLIC "-//W3C//DTD SVG 20010904//EN"
 "http://www.w3.org/TR/2001/REC-SVG-20010904/DTD/svg10.dtd">
<svg version="1.0" xmlns="http://www.w3.org/2000/svg"
 width="672.000000pt" height="980.000000pt" viewBox="0 0 672.000000 980.000000"
 preserveAspectRatio="xMidYMid meet">

<g transform="translate(0.000000,980.000000) scale(0.100000,-0.100000)"
fill="#000000" stroke="none">
<path d="M3135 9794 c-613 -49 -1148 -231 -1640 -559 -196 -131 -336 -246
-511 -420 -425 -425 -716 -930 -869 -1510 -93 -350 -129 -776 -89 -1044 68
-460 395 -1267 853 -2106 109 -200 2466 -4138 2480 -4143 3 -1 505 879 1114
1955 609 1077 1126 1987 1149 2023 378 593 781 1371 942 1820 106 298 136 431
143 647 15 450 -95 959 -305 1415 -99 214 -268 483 -428 683 -115 143 -360
388 -499 499 -504 401 -1067 639 -1706 721 -119 16 -526 27 -634 19z m482
-1139 c747 -98 1377 -614 1613 -1323 189 -566 107 -1194 -220 -1691 -265 -404
-693 -709 -1155 -824 -317 -80 -668 -82 -969 -6 -1042 264 -1680 1289 -1450
2328 177 797 843 1405 1659 1515 138 19 380 19 522 1z"/>
</g>
</svg>
