<svg width="426" height="308" viewBox="0 0 426 308" fill="none" xmlns="http://www.w3.org/2000/svg">
<g filter="url(#filter0_d_1681_229567)">
<g clip-path="url(#clip0_1681_229567)">
<circle cx="221.229" cy="85.0534" r="37.0456" fill="#C9CCFF"/>
<rect x="204.543" y="60.7734" width="33.08" height="20.1357" rx="5.75305" fill="#F67B37"/>
<path d="M210.576 100.406C215.358 99.2888 220.14 102.26 221.258 107.042C222.375 111.824 219.405 116.606 214.623 117.724L167.899 128.643L163.852 111.325L210.576 100.406Z" fill="#58C1A2"/>
<path d="M269.966 112.159C274.709 113.431 277.524 118.306 276.253 123.05C274.982 127.794 270.106 130.609 265.363 129.338L226.871 119.024L231.473 101.846L269.966 112.159Z" fill="#58C1A2"/>
<path d="M196.723 122.4C196.723 109.352 207.301 98.7734 220.35 98.7734C233.399 98.7734 243.977 109.352 243.977 122.4L243.977 172.536L196.723 172.536L196.723 122.4Z" fill="#58C1A2"/>
<circle cx="220.768" cy="79.4248" r="16.1376" transform="rotate(-11.1217 220.768 79.4248)" fill="#FCCDC3"/>
<ellipse cx="220.92" cy="68.2333" rx="13.8305" ry="5.18643" fill="#F67B37"/>
<rect x="214.406" y="87.9844" width="13.6896" height="17.803" rx="6.84481" transform="rotate(0.787123 214.406 87.9844)" fill="#FCCDC3"/>
</g>
</g>
<path fill-rule="evenodd" clip-rule="evenodd" d="M158.251 47.7203C154.262 47.6652 144.672 40.527 144.672 34.8121C144.672 30.8514 147.883 27.6406 151.843 27.6406C154.681 27.6406 157.133 29.2885 158.296 31.6794C159.459 29.2885 161.912 27.6406 164.749 27.6406C168.71 27.6406 171.92 30.8514 171.92 34.8121C171.92 40.527 162.328 47.6652 158.338 47.7203C158.325 47.7205 158.311 47.7206 158.298 47.7206C158.297 47.7206 158.296 47.7206 158.295 47.7206C158.294 47.7206 158.293 47.7206 158.292 47.7206C158.279 47.7206 158.265 47.7205 158.251 47.7203Z" fill="#F285F5"/>
<path fill-rule="evenodd" clip-rule="evenodd" d="M188.376 70.6656C184.387 70.6105 174.797 63.4723 174.797 57.7574C174.797 53.7967 178.008 50.5859 181.968 50.5859C184.806 50.5859 187.258 52.2338 188.421 54.6247C189.584 52.2338 192.037 50.5859 194.874 50.5859C198.835 50.5859 202.045 53.7967 202.045 57.7574C202.045 63.4723 192.453 70.6105 188.463 70.6656C188.45 70.6658 188.436 70.6659 188.423 70.6659C188.422 70.6659 188.421 70.6659 188.42 70.6659C188.419 70.6659 188.418 70.6659 188.417 70.6659C188.404 70.6659 188.39 70.6658 188.376 70.6656Z" fill="#F285F5"/>
<g filter="url(#filter1_d_1681_229567)">
<g clip-path="url(#clip1_1681_229567)">
<circle cx="152.57" cy="249.234" r="23.82" fill="#C9CCFF"/>
<rect x="141.84" y="233.625" width="21.2702" height="12.9471" rx="3.69917" fill="black"/>
<path d="M145.718 259.114C148.792 258.395 151.868 260.305 152.586 263.38C153.305 266.455 151.395 269.53 148.32 270.249L118.277 277.27L115.674 266.134L145.718 259.114Z" fill="#4100FA"/>
<path d="M183.907 266.661C186.957 267.478 188.767 270.613 187.95 273.663C187.133 276.714 183.997 278.524 180.947 277.706L156.197 271.075L159.157 260.029L183.907 266.661Z" fill="#4100FA"/>
<path d="M136.809 273.247C136.809 264.856 143.61 258.055 152.001 258.055C160.391 258.055 167.193 264.856 167.193 273.247L167.193 305.483L136.809 305.483L136.809 273.247Z" fill="#4100FA"/>
<circle cx="152.273" cy="245.617" r="10.3764" transform="rotate(-11.1217 152.273 245.617)" fill="#503D16"/>
<ellipse cx="152.369" cy="238.421" rx="8.8929" ry="3.33484" fill="black"/>
<rect x="148.18" y="251.117" width="8.80233" height="11.4472" rx="4.40117" transform="rotate(0.787123 148.18 251.117)" fill="#503D16"/>
</g>
</g>
<g filter="url(#filter2_d_1681_229567)">
<g clip-path="url(#clip2_1681_229567)">
<circle cx="256.37" cy="212.499" r="37.0456" fill="#BCF6EB"/>
<circle cx="235.952" cy="205.452" r="5.18643" fill="black"/>
<circle cx="275.136" cy="204.304" r="5.18643" fill="black"/>
<circle cx="241.722" cy="200.843" r="5.18643" fill="black"/>
<circle cx="247.483" cy="197.39" r="5.18643" fill="black"/>
<circle cx="238.261" cy="197.39" r="5.18643" fill="black"/>
<circle cx="245.175" cy="191.624" r="5.18643" fill="black"/>
<circle cx="252.089" cy="188.171" r="5.18643" fill="black"/>
<circle cx="260.155" cy="188.171" r="5.18643" fill="black"/>
<circle cx="267.069" cy="191.624" r="5.18643" fill="black"/>
<circle cx="272.839" cy="197.39" r="5.18643" fill="black"/>
<circle cx="254.386" cy="195.085" r="5.18643" fill="black"/>
<circle cx="262.464" cy="196.225" r="5.18643" fill="black"/>
<circle cx="268.233" cy="199.702" r="5.18643" fill="black"/>
<circle cx="272.839" cy="204.304" r="5.18643" fill="black"/>
<circle cx="271.686" cy="211.218" r="5.18643" fill="black"/>
<circle cx="239.413" cy="212.374" r="5.18643" fill="black"/>
<path d="M304.009 242.909C308.752 244.181 311.567 249.056 310.296 253.8C309.025 258.544 304.149 261.359 299.406 260.088L260.913 249.774L265.516 232.596L304.009 242.909Z" fill="#C9CCFF"/>
<path d="M208.238 242.472C203.494 243.743 200.679 248.619 201.95 253.363C203.221 258.106 208.097 260.921 212.84 259.65L251.333 249.336L246.73 232.158L208.238 242.472Z" fill="#C9CCFF"/>
<path d="M231.918 253.861C231.918 240.813 242.496 230.234 255.545 230.234C268.594 230.234 279.172 240.813 279.172 253.861L279.172 303.997L231.918 303.997L231.918 253.861Z" fill="#C9CCFF"/>
<circle cx="255.963" cy="210.886" r="16.1376" transform="rotate(-11.1217 255.963 210.886)" fill="#503D16"/>
<ellipse cx="254.478" cy="195.161" rx="4.46806" ry="4.61016" transform="rotate(45 254.478 195.161)" fill="black"/>
<ellipse cx="262.556" cy="197.458" rx="4.46806" ry="4.61016" transform="rotate(45 262.556 197.458)" fill="black"/>
<ellipse cx="246.407" cy="198.622" rx="4.46806" ry="4.61016" transform="rotate(45 246.407 198.622)" fill="black"/>
<ellipse cx="240.65" cy="205.536" rx="4.46806" ry="4.61016" transform="rotate(45 240.65 205.536)" fill="black"/>
<ellipse cx="254.478" cy="196.318" rx="4.46806" ry="4.61016" transform="rotate(45 254.478 196.318)" fill="black"/>
<ellipse cx="268.302" cy="202.076" rx="4.46806" ry="4.61016" transform="rotate(45 268.302 202.076)" fill="black"/>
<rect x="249.59" y="219.445" width="13.6896" height="17.803" rx="6.84481" transform="rotate(0.787123 249.59 219.445)" fill="#503D16"/>
</g>
</g>
<g filter="url(#filter3_d_1681_229567)">
<g clip-path="url(#clip3_1681_229567)">
<circle cx="128.729" cy="155.116" r="37.0456" fill="#F285F5"/>
<path d="M118.076 170.477C122.858 169.359 127.64 172.33 128.758 177.112C129.875 181.894 126.905 186.677 122.123 187.794L75.3986 198.713L71.3515 181.396L118.076 170.477Z" fill="#58C1A2"/>
<path d="M177.466 182.214C182.209 183.485 185.024 188.361 183.753 193.105C182.482 197.848 177.606 200.664 172.863 199.392L134.371 189.079L138.973 171.9L177.466 182.214Z" fill="#58C1A2"/>
<path d="M104.223 192.471C104.223 179.422 114.801 168.844 127.85 168.844C140.899 168.844 151.477 179.422 151.477 192.471L151.477 242.606L104.223 242.606L104.223 192.471Z" fill="#58C1A2"/>
<circle cx="128.268" cy="149.487" r="16.1376" transform="rotate(-11.1217 128.268 149.487)" fill="#FCCDC3"/>
<ellipse cx="128.416" cy="138.304" rx="13.8305" ry="5.18643" fill="#F67B37"/>
<rect x="121.906" y="158.055" width="13.6896" height="17.803" rx="6.84481" transform="rotate(0.787123 121.906 158.055)" fill="#FCCDC3"/>
<circle cx="7.57479" cy="7.57479" r="7.57479" transform="matrix(-0.928257 -0.371939 -0.371939 0.928257 152.094 154.297)" fill="#FCCDC3"/>
<ellipse cx="128.469" cy="158.939" rx="25.3559" ry="31.1186" fill="black"/>
<path d="M176.356 178.534C181.1 179.806 183.915 184.681 182.644 189.425C181.373 194.169 176.497 196.984 171.753 195.713L133.261 185.399L137.864 168.221L176.356 178.534Z" fill="#4100FA"/>
<path d="M80.5852 178.081C75.8416 179.352 73.0265 184.228 74.2975 188.972C75.5686 193.716 80.4445 196.531 85.1882 195.26L123.68 184.946L119.077 167.767L80.5852 178.081Z" fill="#4100FA"/>
<path d="M104.27 189.486C104.27 176.438 114.848 165.859 127.897 165.859C140.945 165.859 151.524 176.438 151.524 189.486L151.524 239.622L104.27 239.622L104.27 189.486Z" fill="#4100FA"/>
<circle cx="128.315" cy="146.495" r="16.1376" transform="rotate(-11.1217 128.315 146.495)" fill="#FCCDC3"/>
<ellipse cx="124.277" cy="138.849" rx="11.5702" ry="9.25513" fill="black"/>
<ellipse cx="134.857" cy="135.93" rx="11.492" ry="5.29158" transform="rotate(30 134.857 135.93)" fill="black"/>
<rect x="121.949" y="155.062" width="13.6896" height="17.803" rx="6.84481" transform="rotate(0.787123 121.949 155.062)" fill="#FCCDC3"/>
</g>
</g>
<g filter="url(#filter4_d_1681_229567)">
<g clip-path="url(#clip4_1681_229567)">
<circle cx="313.036" cy="131.447" r="24.845" fill="#FCCDC3"/>
<path d="M305.896 141.74C309.103 140.99 312.311 142.983 313.06 146.19C313.81 149.397 311.817 152.605 308.61 153.354L277.274 160.677L274.56 149.063L305.896 141.74Z" fill="#58C1A2"/>
<path d="M345.72 149.621C348.901 150.473 350.789 153.743 349.937 156.924C349.085 160.106 345.814 161.994 342.633 161.141L316.818 154.224L319.905 142.703L345.72 149.621Z" fill="#58C1A2"/>
<path d="M296.598 156.494C296.598 147.743 303.692 140.648 312.443 140.648C321.195 140.648 328.289 147.743 328.289 156.494L328.289 190.118L296.598 190.118L296.598 156.494Z" fill="#58C1A2"/>
<circle cx="312.723" cy="127.665" r="10.8229" transform="rotate(-11.1217 312.723 127.665)" fill="#FCCDC3"/>
<ellipse cx="312.83" cy="120.174" rx="9.27557" ry="3.47834" fill="#F67B37"/>
<rect x="308.465" y="133.414" width="9.18111" height="11.9398" rx="4.59055" transform="rotate(0.787123 308.465 133.414)" fill="#FCCDC3"/>
<circle cx="5.08012" cy="5.08012" r="5.08012" transform="matrix(-0.928257 -0.371939 -0.371939 0.928257 328.699 130.891)" fill="#FCCDC3"/>
<ellipse cx="312.861" cy="134.011" rx="17.0052" ry="20.87" fill="#503D16"/>
<path d="M344.982 147.144C348.163 147.996 350.051 151.267 349.199 154.448C348.346 157.629 345.076 159.517 341.895 158.665L316.08 151.748L319.167 140.227L344.982 147.144Z" fill="#AF2896"/>
<path d="M280.741 146.847C277.559 147.7 275.672 150.97 276.524 154.151C277.376 157.332 280.646 159.22 283.828 158.368L309.643 151.451L306.556 139.93L280.741 146.847Z" fill="#AF2896"/>
<path d="M296.629 154.486C296.629 145.735 303.723 138.641 312.475 138.641C321.226 138.641 328.32 145.735 328.32 154.486L328.32 188.11L296.629 188.11L296.629 154.486Z" fill="#AF2896"/>
<circle cx="312.754" cy="125.665" r="10.8229" transform="rotate(-11.1217 312.754 125.665)" fill="#FCCDC3"/>
<ellipse cx="310.049" cy="120.535" rx="7.75969" ry="6.20707" fill="#503D16"/>
<ellipse cx="317.15" cy="118.575" rx="7.70727" ry="3.54886" transform="rotate(30 317.15 118.575)" fill="#503D16"/>
<rect x="308.484" y="131.406" width="9.18111" height="11.9398" rx="4.59055" transform="rotate(0.787123 308.484 131.406)" fill="#FCCDC3"/>
</g>
</g>
<path fill-rule="evenodd" clip-rule="evenodd" d="M228.537 192.58C224.547 192.525 214.957 185.386 214.957 179.671C214.957 175.711 218.168 172.5 222.128 172.5C224.966 172.5 227.418 174.148 228.581 176.539C229.744 174.148 232.197 172.5 235.034 172.5C238.995 172.5 242.206 175.711 242.206 179.671C242.206 185.386 232.613 192.525 228.624 192.58C228.61 192.58 228.596 192.58 228.583 192.58C228.582 192.58 228.581 192.58 228.58 192.58C228.579 192.58 228.578 192.58 228.577 192.58C228.564 192.58 228.55 192.58 228.537 192.58Z" fill="#F285F5"/>
<defs>
<filter id="filter0_d_1681_229567" x="184.184" y="48.0078" width="81.2613" height="81.2652" filterUnits="userSpaceOnUse" color-interpolation-filters="sRGB">
<feFlood flood-opacity="0" result="BackgroundImageFix"/>
<feColorMatrix in="SourceAlpha" type="matrix" values="0 0 0 0 0 0 0 0 0 0 0 0 0 0 0 0 0 0 127 0" result="hardAlpha"/>
<feOffset dx="7.17143" dy="7.17143"/>
<feComposite in2="hardAlpha" operator="out"/>
<feColorMatrix type="matrix" values="0 0 0 0 0 0 0 0 0 0 0 0 0 0 0 0 0 0 0.05 0"/>
<feBlend mode="color-burn" in2="BackgroundImageFix" result="effect1_dropShadow_1681_229567"/>
<feBlend mode="normal" in="SourceGraphic" in2="effect1_dropShadow_1681_229567" result="shape"/>
</filter>
<filter id="filter1_d_1681_229567" x="128.75" y="225.414" width="54.8121" height="54.8121" filterUnits="userSpaceOnUse" color-interpolation-filters="sRGB">
<feFlood flood-opacity="0" result="BackgroundImageFix"/>
<feColorMatrix in="SourceAlpha" type="matrix" values="0 0 0 0 0 0 0 0 0 0 0 0 0 0 0 0 0 0 127 0" result="hardAlpha"/>
<feOffset dx="7.17143" dy="7.17143"/>
<feComposite in2="hardAlpha" operator="out"/>
<feColorMatrix type="matrix" values="0 0 0 0 0 0 0 0 0 0 0 0 0 0 0 0 0 0 0.05 0"/>
<feBlend mode="color-burn" in2="BackgroundImageFix" result="effect1_dropShadow_1681_229567"/>
<feBlend mode="normal" in="SourceGraphic" in2="effect1_dropShadow_1681_229567" result="shape"/>
</filter>
<filter id="filter2_d_1681_229567" x="219.324" y="175.453" width="81.2613" height="81.2652" filterUnits="userSpaceOnUse" color-interpolation-filters="sRGB">
<feFlood flood-opacity="0" result="BackgroundImageFix"/>
<feColorMatrix in="SourceAlpha" type="matrix" values="0 0 0 0 0 0 0 0 0 0 0 0 0 0 0 0 0 0 127 0" result="hardAlpha"/>
<feOffset dx="7.17143" dy="7.17143"/>
<feComposite in2="hardAlpha" operator="out"/>
<feColorMatrix type="matrix" values="0 0 0 0 0 0 0 0 0 0 0 0 0 0 0 0 0 0 0.05 0"/>
<feBlend mode="color-burn" in2="BackgroundImageFix" result="effect1_dropShadow_1681_229567"/>
<feBlend mode="normal" in="SourceGraphic" in2="effect1_dropShadow_1681_229567" result="shape"/>
</filter>
<filter id="filter3_d_1681_229567" x="91.6836" y="118.07" width="81.2613" height="81.2652" filterUnits="userSpaceOnUse" color-interpolation-filters="sRGB">
<feFlood flood-opacity="0" result="BackgroundImageFix"/>
<feColorMatrix in="SourceAlpha" type="matrix" values="0 0 0 0 0 0 0 0 0 0 0 0 0 0 0 0 0 0 127 0" result="hardAlpha"/>
<feOffset dx="7.17143" dy="7.17143"/>
<feComposite in2="hardAlpha" operator="out"/>
<feColorMatrix type="matrix" values="0 0 0 0 0 0 0 0 0 0 0 0 0 0 0 0 0 0 0.05 0"/>
<feBlend mode="color-burn" in2="BackgroundImageFix" result="effect1_dropShadow_1681_229567"/>
<feBlend mode="normal" in="SourceGraphic" in2="effect1_dropShadow_1681_229567" result="shape"/>
</filter>
<filter id="filter4_d_1681_229567" x="288.191" y="106.602" width="56.8628" height="56.8589" filterUnits="userSpaceOnUse" color-interpolation-filters="sRGB">
<feFlood flood-opacity="0" result="BackgroundImageFix"/>
<feColorMatrix in="SourceAlpha" type="matrix" values="0 0 0 0 0 0 0 0 0 0 0 0 0 0 0 0 0 0 127 0" result="hardAlpha"/>
<feOffset dx="7.17143" dy="7.17143"/>
<feComposite in2="hardAlpha" operator="out"/>
<feColorMatrix type="matrix" values="0 0 0 0 0 0 0 0 0 0 0 0 0 0 0 0 0 0 0.05 0"/>
<feBlend mode="color-burn" in2="BackgroundImageFix" result="effect1_dropShadow_1681_229567"/>
<feBlend mode="normal" in="SourceGraphic" in2="effect1_dropShadow_1681_229567" result="shape"/>
</filter>
<clipPath id="clip0_1681_229567">
<rect x="184.184" y="48.0078" width="74.0911" height="74.0911" rx="37.0456" fill="white"/>
</clipPath>
<clipPath id="clip1_1681_229567">
<rect x="128.75" y="225.414" width="47.6401" height="47.6401" rx="23.82" fill="white"/>
</clipPath>
<clipPath id="clip2_1681_229567">
<rect x="219.324" y="175.453" width="74.0911" height="74.0911" rx="37.0456" fill="white"/>
</clipPath>
<clipPath id="clip3_1681_229567">
<rect x="91.6836" y="118.07" width="74.0911" height="74.0911" rx="37.0456" fill="white"/>
</clipPath>
<clipPath id="clip4_1681_229567">
<rect x="288.191" y="106.602" width="49.6901" height="49.6901" rx="24.845" fill="white"/>
</clipPath>
</defs>
</svg>
