<svg width="269" height="154" viewBox="0 0 269 154" fill="none" xmlns="http://www.w3.org/2000/svg">
<path d="M115 0H102.5L51.5 153.5H68.5L69.7775 150.14C75.5842 134.866 97.911 137.328 100.25 153.5H115L166 0H151.5L150.394 4.00214C145.158 22.9563 117.667 20.9855 115.188 1.47834L115 0Z" fill="white"/>
<path d="M217.5 0H205L154 153.5H171L172.277 150.14C178.084 134.866 200.411 137.328 202.75 153.5H217.5L268.5 0H254L252.894 4.00214C247.658 22.9563 220.167 20.9855 217.688 1.47834L217.5 0Z" fill="white"/>
<path d="M51.5 154L0 0.5H15L15.9375 4.04416C20.7983 22.4205 47.124 21.6963 50.9672 3.08055L51.5 0.5H64L80 56.5L51.5 154Z" fill="white"/>
<path d="M154 154L102.5 0.5H117.5L118.437 4.04416C123.298 22.4205 149.624 21.6963 153.467 3.08055L154 0.5H166.5L181.5 55.5L154 154Z" fill="white"/>
<path d="M116.769 42.8617L148.392 137.44L144.257 140.25L116.769 42.8617Z" fill="black"/>
</svg>
