<svg width="426" height="308" viewBox="0 0 426 308" fill="none" xmlns="http://www.w3.org/2000/svg">
<g filter="url(#filter0_i_1681_229573)">
<rect x="92.4023" y="27.3594" width="247.228" height="38.0351" rx="2.9715" transform="rotate(6.2363 92.4023 27.3594)" fill="white"/>
<circle cx="310.103" cy="70.2787" r="10.6974" transform="rotate(6.2363 310.103 70.2787)" stroke="#F5F5F7" stroke-width="2.3772"/>
<circle cx="310.103" cy="70.2787" r="11.886" transform="rotate(6.2363 310.103 70.2787)" fill="#4100FA"/>
<path d="M306.007 69.4302L308.885 73.7303L314.494 68.3648" stroke="white" stroke-width="1.7829" stroke-linecap="round" stroke-linejoin="round"/>
<rect x="105.43" y="44.9141" width="9.50879" height="5.94299" transform="rotate(6.2363 105.43 44.9141)" fill="#551A30"/>
<rect x="166.012" y="48.5625" width="13.0746" height="11.886" rx="2.3772" transform="rotate(6.2363 166.012 48.5625)" fill="#58C1A2"/>
<rect x="200.277" y="52.2969" width="13.0746" height="11.886" rx="2.3772" transform="rotate(6.2363 200.277 52.2969)" fill="#58C1A2"/>
<rect x="234.543" y="56.0469" width="13.0746" height="11.886" rx="2.3772" transform="rotate(6.2363 234.543 56.0469)" fill="#E6E6E6"/>
<rect x="183.145" y="50.4219" width="13.0746" height="11.886" rx="2.3772" transform="rotate(6.2363 183.145 50.4219)" fill="#58C1A2"/>
<rect x="217.41" y="54.1719" width="13.0746" height="11.886" rx="2.3772" transform="rotate(6.2363 217.41 54.1719)" fill="#E6E6E6"/>
<rect x="251.668" y="57.9141" width="13.0746" height="11.886" rx="2.3772" transform="rotate(6.2363 251.668 57.9141)" fill="#E6E6E6"/>
<rect x="129.621" y="49.3984" width="17.3337" height="13.0003" rx="2.16672" transform="rotate(6.2363 129.621 49.3984)" fill="#551A30"/>
<path d="M137.873 39.7847C138.798 39.0612 140.132 39.2069 140.879 40.1132L149.479 50.5427C150.716 52.0425 149.505 54.2863 147.572 54.0751L128.322 51.9715C126.389 51.7603 125.691 49.3079 127.223 48.1106L137.873 39.7847Z" fill="#AF2896"/>
<path d="M134.069 58.5914C134.199 57.4018 135.269 56.5429 136.459 56.6729L138.612 56.9082C139.802 57.0382 140.661 58.1079 140.531 59.2975L140.06 63.6053L133.599 62.8992L134.069 58.5914Z" fill="#FFC864"/>
</g>
<g filter="url(#filter1_i_1681_229573)">
<rect x="87.5977" y="113.305" width="247.228" height="38.0351" rx="2.9715" transform="rotate(-2.01717 87.5977 113.305)" fill="white"/>
<circle cx="309.211" cy="124.546" r="10.6974" transform="rotate(-2.01717 309.211 124.546)" stroke="#F5F5F7" stroke-width="2.3772"/>
<circle cx="309.211" cy="124.546" r="11.886" transform="rotate(-2.01717 309.211 124.546)" fill="#4100FA"/>
<path d="M305.042 124.292L308.508 128.135L313.288 122.02" stroke="white" stroke-width="1.7829" stroke-linecap="round" stroke-linejoin="round"/>
<rect x="103.012" y="128.812" width="9.50879" height="5.94299" transform="rotate(-2.01717 103.012 128.812)" fill="#551A30"/>
<rect x="163.488" y="123.711" width="13.0746" height="11.886" rx="2.3772" transform="rotate(-2.01717 163.488 123.711)" fill="#58C1A2"/>
<rect x="197.93" y="122.508" width="13.0746" height="11.886" rx="2.3772" transform="rotate(-2.01717 197.93 122.508)" fill="#E6E6E6"/>
<rect x="232.379" y="121.289" width="13.0746" height="11.886" rx="2.3772" transform="rotate(-2.01717 232.379 121.289)" fill="#E6E6E6"/>
<rect x="180.711" y="123.109" width="13.0746" height="11.886" rx="2.3772" transform="rotate(-2.01717 180.711 123.109)" fill="#58C1A2"/>
<rect x="215.156" y="121.898" width="13.0746" height="11.886" rx="2.3772" transform="rotate(-2.01717 215.156 121.898)" fill="#E6E6E6"/>
<rect x="249.605" y="120.68" width="13.0746" height="11.886" rx="2.3772" transform="rotate(-2.01717 249.605 120.68)" fill="#E6E6E6"/>
<rect x="127.602" y="129.766" width="17.3337" height="13.0003" rx="2.16672" transform="rotate(-2.01717 127.602 129.766)" fill="#551A30"/>
<path d="M134.387 119.079C135.199 118.231 136.54 118.183 137.409 118.973L147.418 128.06C148.857 129.367 147.981 131.761 146.038 131.829L126.685 132.511C124.742 132.579 123.699 130.253 125.043 128.848L134.387 119.079Z" fill="#AF2896"/>
<path d="M133.322 138.236C133.28 137.04 134.216 136.036 135.411 135.994L137.577 135.918C138.773 135.876 139.776 136.811 139.818 138.007L139.971 142.338L133.475 142.566L133.322 138.236Z" fill="#FFC864"/>
</g>
<g filter="url(#filter2_i_1681_229573)">
<rect x="91.1641" y="213.656" width="247.228" height="38.0351" rx="2.9715" transform="rotate(6.54558 91.1641 213.656)" fill="white"/>
<circle cx="308.637" cy="257.749" r="10.6974" transform="rotate(6.54558 308.637 257.749)" stroke="#F5F5F7" stroke-width="2.3772"/>
<circle cx="308.637" cy="257.749" r="11.886" transform="rotate(6.54558 308.637 257.749)" fill="#4100FA"/>
<path d="M304.552 256.882L307.406 261.198L313.043 255.863" stroke="white" stroke-width="1.7829" stroke-linecap="round" stroke-linejoin="round"/>
<rect x="104.098" y="231.289" width="9.50879" height="5.94299" transform="rotate(6.54558 104.098 231.289)" fill="#551A30"/>
<rect x="164.66" y="235.258" width="13.0746" height="11.886" rx="2.3772" transform="rotate(6.54558 164.66 235.258)" fill="#58C1A2"/>
<rect x="198.906" y="239.188" width="13.0746" height="11.886" rx="2.3772" transform="rotate(6.54558 198.906 239.188)" fill="#58C1A2"/>
<rect x="233.152" y="243.117" width="13.0746" height="11.886" rx="2.3772" transform="rotate(6.54558 233.152 243.117)" fill="#E6E6E6"/>
<rect x="181.785" y="237.211" width="13.0746" height="11.886" rx="2.3772" transform="rotate(6.54558 181.785 237.211)" fill="#58C1A2"/>
<rect x="216.031" y="241.148" width="13.0746" height="11.886" rx="2.3772" transform="rotate(6.54558 216.031 241.148)" fill="#58C1A2"/>
<rect x="250.277" y="245.078" width="13.0746" height="11.886" rx="2.3772" transform="rotate(6.54558 250.277 245.078)" fill="#E6E6E6"/>
<rect x="128.27" y="235.891" width="17.3337" height="13.0003" rx="2.16672" transform="rotate(6.54558 128.27 235.891)" fill="#551A30"/>
<path d="M136.57 226.337C137.499 225.619 138.832 225.772 139.574 226.682L148.119 237.158C149.347 238.664 148.124 240.902 146.193 240.68L126.954 238.472C125.022 238.251 124.337 235.795 125.875 234.606L136.57 226.337Z" fill="#AF2896"/>
<path d="M132.663 245.121C132.8 243.932 133.874 243.079 135.063 243.216L137.215 243.463C138.404 243.599 139.257 244.673 139.121 245.862L138.627 250.168L132.169 249.427L132.663 245.121Z" fill="#FFC864"/>
</g>
<g filter="url(#filter3_i_1681_229573)">
<rect x="88.7422" y="165.891" width="247.228" height="38.0351" rx="2.9715" transform="rotate(2.23053 88.7422 165.891)" fill="white"/>
<circle cx="308.918" cy="193.488" r="10.6974" transform="rotate(2.23053 308.918 193.488)" stroke="#F5F5F7" stroke-width="2.3772"/>
<circle cx="308.918" cy="193.488" r="11.886" transform="rotate(2.23053 308.918 193.488)" fill="#4100FA"/>
<path d="M304.778 192.933L307.95 197.021L313.169 191.277" stroke="white" stroke-width="1.7829" stroke-linecap="round" stroke-linejoin="round"/>
<rect x="102.969" y="182.508" width="9.50879" height="5.94299" transform="rotate(2.23053 102.969 182.508)" fill="#551A30"/>
<rect x="163.656" y="181.898" width="13.0746" height="11.886" rx="2.3772" transform="rotate(2.23053 163.656 181.898)" fill="#FFC864"/>
<rect x="198.098" y="183.234" width="13.0746" height="11.886" rx="2.3772" transform="rotate(2.23053 198.098 183.234)" fill="#FFC864"/>
<rect x="232.543" y="184.578" width="13.0746" height="11.886" rx="2.3772" transform="rotate(2.23053 232.543 184.578)" fill="#FFC864"/>
<rect x="180.875" y="182.57" width="13.0746" height="11.886" rx="2.3772" transform="rotate(2.23053 180.875 182.57)" fill="#FFC864"/>
<rect x="215.316" y="183.906" width="13.0746" height="11.886" rx="2.3772" transform="rotate(2.23053 215.316 183.906)" fill="#FFC864"/>
<rect x="249.762" y="185.242" width="13.0746" height="11.886" rx="2.3772" transform="rotate(2.23053 249.762 185.242)" fill="#E6E6E6"/>
<rect x="127.418" y="185.273" width="17.3337" height="13.0003" rx="2.16672" transform="rotate(2.23053 127.418 185.273)" fill="#551A30"/>
<path d="M134.975 175.111C135.848 174.325 137.188 174.377 137.997 175.229L147.305 185.032C148.643 186.442 147.592 188.765 145.649 188.689L126.299 187.935C124.356 187.86 123.488 185.462 124.933 184.161L134.975 175.111Z" fill="#AF2896"/>
<path d="M132.494 194.142C132.54 192.946 133.547 192.014 134.743 192.061L136.908 192.145C138.104 192.192 139.036 193.199 138.989 194.395L138.82 198.725L132.325 198.472L132.494 194.142Z" fill="#FFC864"/>
</g>
<defs>
<filter id="filter0_i_1681_229573" x="88.2695" y="27.3594" width="249.898" height="64.6641" filterUnits="userSpaceOnUse" color-interpolation-filters="sRGB">
<feFlood flood-opacity="0" result="BackgroundImageFix"/>
<feBlend mode="normal" in="SourceGraphic" in2="BackgroundImageFix" result="shape"/>
<feColorMatrix in="SourceAlpha" type="matrix" values="0 0 0 0 0 0 0 0 0 0 0 0 0 0 0 0 0 0 127 0" result="hardAlpha"/>
<feOffset dy="0.594299"/>
<feComposite in2="hardAlpha" operator="arithmetic" k2="-1" k3="1"/>
<feColorMatrix type="matrix" values="0 0 0 0 0.901961 0 0 0 0 0.901961 0 0 0 0 0.901961 0 0 0 1 0"/>
<feBlend mode="normal" in2="shape" result="effect1_innerShadow_1681_229573"/>
</filter>
<filter id="filter1_i_1681_229573" x="87.5977" y="104.602" width="248.414" height="46.7109" filterUnits="userSpaceOnUse" color-interpolation-filters="sRGB">
<feFlood flood-opacity="0" result="BackgroundImageFix"/>
<feBlend mode="normal" in="SourceGraphic" in2="BackgroundImageFix" result="shape"/>
<feColorMatrix in="SourceAlpha" type="matrix" values="0 0 0 0 0 0 0 0 0 0 0 0 0 0 0 0 0 0 127 0" result="hardAlpha"/>
<feOffset dy="0.594299"/>
<feComposite in2="hardAlpha" operator="arithmetic" k2="-1" k3="1"/>
<feColorMatrix type="matrix" values="0 0 0 0 0.901961 0 0 0 0 0.901961 0 0 0 0 0.901961 0 0 0 1 0"/>
<feBlend mode="normal" in2="shape" result="effect1_innerShadow_1681_229573"/>
</filter>
<filter id="filter2_i_1681_229573" x="86.8281" y="213.656" width="249.953" height="65.9688" filterUnits="userSpaceOnUse" color-interpolation-filters="sRGB">
<feFlood flood-opacity="0" result="BackgroundImageFix"/>
<feBlend mode="normal" in="SourceGraphic" in2="BackgroundImageFix" result="shape"/>
<feColorMatrix in="SourceAlpha" type="matrix" values="0 0 0 0 0 0 0 0 0 0 0 0 0 0 0 0 0 0 127 0" result="hardAlpha"/>
<feOffset dy="0.594299"/>
<feComposite in2="hardAlpha" operator="arithmetic" k2="-1" k3="1"/>
<feColorMatrix type="matrix" values="0 0 0 0 0.901961 0 0 0 0 0.901961 0 0 0 0 0.901961 0 0 0 1 0"/>
<feBlend mode="normal" in2="shape" result="effect1_innerShadow_1681_229573"/>
</filter>
<filter id="filter3_i_1681_229573" x="87.2617" y="165.891" width="248.523" height="47.625" filterUnits="userSpaceOnUse" color-interpolation-filters="sRGB">
<feFlood flood-opacity="0" result="BackgroundImageFix"/>
<feBlend mode="normal" in="SourceGraphic" in2="BackgroundImageFix" result="shape"/>
<feColorMatrix in="SourceAlpha" type="matrix" values="0 0 0 0 0 0 0 0 0 0 0 0 0 0 0 0 0 0 127 0" result="hardAlpha"/>
<feOffset dy="0.594299"/>
<feComposite in2="hardAlpha" operator="arithmetic" k2="-1" k3="1"/>
<feColorMatrix type="matrix" values="0 0 0 0 0.901961 0 0 0 0 0.901961 0 0 0 0 0.901961 0 0 0 1 0"/>
<feBlend mode="normal" in2="shape" result="effect1_innerShadow_1681_229573"/>
</filter>
</defs>
</svg>
