<svg xmlns="http://www.w3.org/2000/svg" viewBox="0 0 700 600" width="700" height="600" preserveAspectRatio="xMinYMin meet" style="width: 100%; height: 100%; transform: translate3d(0px, 0px, 0px);"><defs><clipPath id="__lottie_element_174"><rect width="700" height="600" x="0" y="0"></rect></clipPath><clipPath id="__lottie_element_176"><path d="M0,0 L1900,0 L1900,1900 L0,1900z"></path></clipPath><clipPath id="__lottie_element_183"><path d="M0,0 L1736,0 L1736,1736 L0,1736z"></path></clipPath></defs><g clip-path="url(#__lottie_element_174)"><g clip-path="url(#__lottie_element_176)" transform="matrix(0.25999999046325684,0,0,0.25999999046325684,103.00001525878906,53.00001525878906)" opacity="1" style="display: block;"><g transform="matrix(1,0,0,1,978.0159912109375,975.0159912109375)" opacity="0.02" style="display: block;"><g opacity="1" transform="matrix(0.9236000180244446,0,0,0.9236000180244446,-7.015999794006348,-7.015999794006348)"><path stroke-linecap="butt" stroke-linejoin="miter" fill-opacity="0" stroke-miterlimit="4" stroke="rgb(0,0,0)" stroke-opacity="1" stroke-width="94" d=" M53.816001892089844,-855.3189697265625 C501.75799560546875,-827.5050048828125 856.9840087890625,-454.89599609375 856.9840087890625,0 C856.9844970703125,472.9697570800781 472.9697570800781,856.9844970703125 0,856.9844970703125 C-472.9697570800781,856.9844970703125 -856.9844970703125,472.9697570800781 -856.9844970703125,0 C-856.9844970703125,-472.9697570800781 -472.9697570800781,-856.9844970703125 0,-856.9844970703125"></path></g></g><g clip-path="url(#__lottie_element_183)" transform="matrix(1,0,0,1,82,82)" opacity="1" style="display: block;"><g fill="rgb(0,0,0)" font-size="650" font-family="Poppins" font-style="normal" font-weight="700" aria-label="20" transform="matrix(1,0,0,1,883.4550170898438,1148)" opacity="1" style="display: none;"><path stroke-linecap="butt" stroke-linejoin="round" stroke-miterlimit="4" d=" M-362.19,-6.55 C-362.19,-6.55 -33.59,-6.55 -33.59,-6.55 C-33.59,-6.55 -33.59,-97.53 -33.59,-97.53 C-33.59,-97.53 -210.33,-97.53 -210.33,-97.53 C-134.39,-155.79 -40.79,-239.58 -40.79,-344.32 C-40.79,-424.83 -89.23,-488.33 -197.89,-488.33 C-284.95,-488.33 -360.23,-438.58 -363.51,-322.72 C-363.51,-322.72 -255.5,-322.72 -255.5,-322.72 C-255.5,-367.89 -235.86,-394.07 -202.48,-394.07 C-168.43,-394.07 -152.72,-371.82 -152.72,-337.12 C-152.72,-256.61 -260.73,-173.47 -362.19,-89.68 C-362.19,-89.68 -362.19,-6.55 -362.19,-6.55z M-6.62,-245.48 C-6.62,-104.08 41.17,-1.96 177.33,-1.96 C313.48,-1.96 361.27,-104.08 361.27,-245.48 C361.27,-385.57 313.48,-487.68 177.33,-487.68 C41.17,-487.68 -6.62,-385.57 -6.62,-245.48z M251.3,-245.48 C251.3,-169.55 243.44,-106.7 177.33,-106.7 C111.21,-106.7 103.36,-169.55 103.36,-245.48 C103.36,-318.79 111.21,-382.94 177.33,-382.94 C243.44,-382.94 251.3,-318.79 251.3,-245.48z" style="display: inherit;"></path></g><g fill="rgb(0,0,0)" font-size="650" font-family="Poppins" font-style="normal" font-weight="700" aria-label="10" transform="matrix(1,0,0,1,883.4550170898438,1148)" opacity="1" style="display: none;"><path stroke-linecap="butt" stroke-linejoin="round" stroke-miterlimit="4" d=" M-241.87,0 C-241.87,0 -125.35,0 -125.35,0 C-125.35,0 -125.35,-477.86 -125.35,-477.86 C-125.35,-477.86 -306.68,-477.86 -306.68,-477.86 C-306.68,-477.86 -306.68,-373.78 -306.68,-373.78 C-306.68,-373.78 -241.87,-373.78 -241.87,-373.78 C-241.87,-373.78 -241.87,0 -241.87,0z M-69.99,-245.48 C-69.99,-104.08 -22.2,-1.96 113.95,-1.96 C250.11,-1.96 297.89,-104.08 297.89,-245.48 C297.89,-385.57 250.11,-487.68 113.95,-487.68 C-22.2,-487.68 -69.99,-385.57 -69.99,-245.48z M187.92,-245.48 C187.92,-169.55 180.07,-106.7 113.95,-106.7 C47.83,-106.7 39.98,-169.55 39.98,-245.48 C39.98,-318.79 47.83,-382.94 113.95,-382.94 C180.07,-382.94 187.92,-318.79 187.92,-245.48z" style="display: inherit;"></path></g><g fill="rgb(0,0,0)" font-size="650" font-family="Poppins" font-style="normal" font-weight="700" aria-label="3" transform="matrix(1,0,0,1,883.4550170898438,1148)" opacity="1" style="display: block;"><path stroke-linecap="butt" stroke-linejoin="round" stroke-miterlimit="4" d=" M-163.24,-343.01 C-163.24,-343.01 -53.92,-343.01 -53.92,-343.01 C-51.96,-369.19 -38.86,-395.38 -2.86,-395.38 C27.25,-395.38 46.23,-377.71 46.23,-345.63 C46.23,-302.43 9.57,-293.26 -28.39,-293.26 C-28.39,-293.26 -49.34,-293.26 -49.34,-293.26 C-49.34,-293.26 -49.34,-202.27 -49.34,-202.27 C-49.34,-202.27 -28.39,-202.27 -28.39,-202.27 C29.87,-202.27 55.4,-185.25 55.4,-142.7 C55.4,-111.28 36.42,-89.02 1.72,-89.02 C-39.52,-89.02 -59.81,-113.91 -60.47,-151.22 C-60.47,-151.22 -169.13,-151.22 -169.13,-151.22 C-165.85,-43.21 -93.85,3.93 5.65,3.93 C105.8,3.93 163.4,-53.68 163.4,-134.19 C163.4,-197.03 130.68,-233.69 82.89,-249.4 C82.89,-249.4 82.89,-252.02 82.89,-252.02 C115.62,-263.15 154.89,-296.54 154.89,-359.38 C154.89,-431.39 100.56,-488.99 -0.25,-488.99 C-97.78,-488.99 -159.31,-437.27 -163.24,-343.01z" style="display: inherit;"></path></g><g fill="rgb(0,0,0)" font-size="72" font-family="Poppins" font-style="normal" font-weight="400" aria-label="Estimated wait" transform="matrix(1,0,0,1,612,518)" opacity="1" style="display: block;"><path stroke-linecap="butt" stroke-linejoin="round" stroke-miterlimit="4" d=" M32.77,-50.61 C32.77,-50.61 5.58,-50.61 5.58,-50.61 C5.58,-50.61 5.58,0 5.58,0 C5.58,0 32.77,0 32.77,0 C32.77,0 32.77,-5.44 32.77,-5.44 C32.77,-5.44 12.18,-5.44 12.18,-5.44 C12.18,-5.44 12.18,-22.84 12.18,-22.84 C12.18,-22.84 30.6,-22.84 30.6,-22.84 C30.6,-22.84 30.6,-28.28 30.6,-28.28 C30.6,-28.28 12.18,-28.28 12.18,-28.28 C12.18,-28.28 12.18,-45.17 12.18,-45.17 C12.18,-45.17 32.77,-45.17 32.77,-45.17 C32.77,-45.17 32.77,-50.61 32.77,-50.61z M68.93,-10.8 C68.64,-25.02 45.58,-19.87 45.58,-29.29 C45.58,-32.48 48.48,-34.8 53.34,-34.8 C58.63,-34.8 61.68,-31.9 61.97,-27.92 C61.97,-27.92 68.57,-27.92 68.57,-27.92 C68.13,-35.68 62.33,-40.39 53.56,-40.39 C44.71,-40.39 38.98,-35.38 38.98,-29.29 C38.98,-14.5 62.47,-19.65 62.47,-10.8 C62.47,-7.54 59.57,-4.93 54.35,-4.93 C48.77,-4.93 45.36,-7.83 45,-11.67 C45,-11.67 38.18,-11.67 38.18,-11.67 C38.62,-4.42 45.14,0.65 54.43,0.65 C63.2,0.65 68.93,-4.28 68.93,-10.8z M77.23,-10.88 C77.23,-2.9 81.22,0 88.25,0 C88.25,0 94.2,0 94.2,0 C94.2,0 94.2,-5.58 94.2,-5.58 C94.2,-5.58 89.34,-5.58 89.34,-5.58 C85.28,-5.58 83.83,-6.96 83.83,-10.88 C83.83,-10.88 83.83,-34.3 83.83,-34.3 C83.83,-34.3 94.2,-34.3 94.2,-34.3 C94.2,-34.3 94.2,-39.74 94.2,-39.74 C94.2,-39.74 83.83,-39.74 83.83,-39.74 C83.83,-39.74 83.83,-49.74 83.83,-49.74 C83.83,-49.74 77.23,-49.74 77.23,-49.74 C77.23,-49.74 77.23,-39.74 77.23,-39.74 C77.23,-39.74 72.08,-39.74 72.08,-39.74 C72.08,-39.74 72.08,-34.3 72.08,-34.3 C72.08,-34.3 77.23,-34.3 77.23,-34.3 C77.23,-34.3 77.23,-10.88 77.23,-10.88z M99.83,0 C99.83,0 106.43,0 106.43,0 C106.43,0 106.43,-39.74 106.43,-39.74 C106.43,-39.74 99.83,-39.74 99.83,-39.74 C99.83,-39.74 99.83,0 99.83,0z M103.24,-46.19 C105.63,-46.19 107.59,-48.15 107.59,-50.68 C107.59,-53.22 105.63,-55.18 103.24,-55.18 C100.7,-55.18 98.74,-53.22 98.74,-50.68 C98.74,-48.15 100.7,-46.19 103.24,-46.19z M172.74,0 C172.74,0 179.26,0 179.26,0 C179.26,0 179.26,-23.42 179.26,-23.42 C179.26,-34.8 172.23,-40.46 163.17,-40.46 C157.08,-40.46 151.42,-37.34 149.1,-31.61 C146.49,-37.56 141.05,-40.46 134.53,-40.46 C129.3,-40.46 124.59,-38.21 121.98,-34.01 C121.98,-34.01 121.98,-39.74 121.98,-39.74 C121.98,-39.74 115.38,-39.74 115.38,-39.74 C115.38,-39.74 115.38,0 115.38,0 C115.38,0 121.98,0 121.98,0 C121.98,0 121.98,-21.9 121.98,-21.9 C121.98,-30.45 126.55,-34.73 133.22,-34.73 C139.75,-34.73 144.1,-30.6 144.1,-22.48 C144.1,-22.48 144.1,0 144.1,0 C144.1,0 150.62,0 150.62,0 C150.62,0 150.62,-21.9 150.62,-21.9 C150.62,-30.45 155.19,-34.73 161.86,-34.73 C168.39,-34.73 172.74,-30.6 172.74,-22.48 C172.74,-22.48 172.74,0 172.74,0z M184.92,-20.01 C184.92,-7.69 193.11,0.65 203.7,0.65 C211.02,0.65 216.17,-3.12 218.56,-7.4 C218.56,-7.4 218.56,0 218.56,0 C218.56,0 225.23,0 225.23,0 C225.23,0 225.23,-39.74 225.23,-39.74 C225.23,-39.74 218.56,-39.74 218.56,-39.74 C218.56,-39.74 218.56,-32.48 218.56,-32.48 C216.24,-36.62 211.17,-40.39 203.77,-40.39 C193.11,-40.39 184.92,-32.41 184.92,-20.01z M218.56,-19.94 C218.56,-10.59 212.33,-5.15 205.08,-5.15 C197.82,-5.15 191.66,-10.66 191.66,-20.01 C191.66,-29.37 197.82,-34.66 205.08,-34.66 C212.33,-34.66 218.56,-29.15 218.56,-19.94z M235.35,-10.88 C235.35,-2.9 239.33,0 246.37,0 C246.37,0 252.31,0 252.31,0 C252.31,0 252.31,-5.58 252.31,-5.58 C252.31,-5.58 247.45,-5.58 247.45,-5.58 C243.39,-5.58 241.94,-6.96 241.94,-10.88 C241.94,-10.88 241.94,-34.3 241.94,-34.3 C241.94,-34.3 252.31,-34.3 252.31,-34.3 C252.31,-34.3 252.31,-39.74 252.31,-39.74 C252.31,-39.74 241.94,-39.74 241.94,-39.74 C241.94,-39.74 241.94,-49.74 241.94,-49.74 C241.94,-49.74 235.35,-49.74 235.35,-49.74 C235.35,-49.74 235.35,-39.74 235.35,-39.74 C235.35,-39.74 230.2,-39.74 230.2,-39.74 C230.2,-39.74 230.2,-34.3 230.2,-34.3 C230.2,-34.3 235.35,-34.3 235.35,-34.3 C235.35,-34.3 235.35,-10.88 235.35,-10.88z M274.84,-34.8 C281.65,-34.8 287.45,-30.53 287.38,-22.77 C287.38,-22.77 262.29,-22.77 262.29,-22.77 C263.02,-30.53 268.38,-34.8 274.84,-34.8z M293.4,-12.25 C293.4,-12.25 286.29,-12.25 286.29,-12.25 C284.84,-7.98 281.07,-4.93 275.13,-4.93 C268.38,-4.93 262.73,-9.35 262.22,-17.4 C262.22,-17.4 293.98,-17.4 293.98,-17.4 C294.13,-18.78 294.2,-19.94 294.2,-21.39 C294.2,-32.27 286.66,-40.39 275.13,-40.39 C263.53,-40.39 255.48,-32.48 255.48,-19.94 C255.48,-7.32 263.82,0.65 275.13,0.65 C284.99,0.65 291.37,-5 293.4,-12.25z M297.96,-20.01 C297.96,-7.69 306.15,0.65 316.81,0.65 C324.06,0.65 329.21,-3.05 331.6,-7.47 C331.6,-7.47 331.6,0 331.6,0 C331.6,0 338.27,0 338.27,0 C338.27,0 338.27,-53.66 338.27,-53.66 C338.27,-53.66 331.6,-53.66 331.6,-53.66 C331.6,-53.66 331.6,-32.63 331.6,-32.63 C328.85,-37.2 323.12,-40.39 316.88,-40.39 C306.15,-40.39 297.96,-32.41 297.96,-20.01z M331.6,-19.94 C331.6,-10.59 325.37,-5.15 318.12,-5.15 C310.86,-5.15 304.7,-10.66 304.7,-20.01 C304.7,-29.37 310.86,-34.66 318.12,-34.66 C325.37,-34.66 331.6,-29.15 331.6,-19.94z M371.76,0 C371.76,0 378.57,0 378.57,0 C378.57,0 388.14,-31.54 388.14,-31.54 C388.14,-31.54 397.72,0 397.72,0 C397.72,0 404.53,0 404.53,0 C404.53,0 416.93,-39.74 416.93,-39.74 C416.93,-39.74 410.41,-39.74 410.41,-39.74 C410.41,-39.74 401.41,-6.31 401.41,-6.31 C401.41,-6.31 391.77,-39.74 391.77,-39.74 C391.77,-39.74 385.03,-39.74 385.03,-39.74 C385.03,-39.74 375.17,-6.38 375.17,-6.38 C375.17,-6.38 366.03,-39.74 366.03,-39.74 C366.03,-39.74 359.29,-39.74 359.29,-39.74 C359.29,-39.74 371.76,0 371.76,0z M418.41,-20.01 C418.41,-7.69 426.61,0.65 437.19,0.65 C444.52,0.65 449.67,-3.12 452.06,-7.4 C452.06,-7.4 452.06,0 452.06,0 C452.06,0 458.73,0 458.73,0 C458.73,0 458.73,-39.74 458.73,-39.74 C458.73,-39.74 452.06,-39.74 452.06,-39.74 C452.06,-39.74 452.06,-32.48 452.06,-32.48 C449.74,-36.62 444.66,-40.39 437.27,-40.39 C426.61,-40.39 418.41,-32.41 418.41,-20.01z M452.06,-19.94 C452.06,-10.59 445.82,-5.15 438.57,-5.15 C431.32,-5.15 425.16,-10.66 425.16,-20.01 C425.16,-29.37 431.32,-34.66 438.57,-34.66 C445.82,-34.66 452.06,-29.15 452.06,-19.94z M467.39,0 C467.39,0 473.99,0 473.99,0 C473.99,0 473.99,-39.74 473.99,-39.74 C473.99,-39.74 467.39,-39.74 467.39,-39.74 C467.39,-39.74 467.39,0 467.39,0z M470.8,-46.19 C473.19,-46.19 475.15,-48.15 475.15,-50.68 C475.15,-53.22 473.19,-55.18 470.8,-55.18 C468.26,-55.18 466.3,-53.22 466.3,-50.68 C466.3,-48.15 468.26,-46.19 470.8,-46.19z M484.39,-10.88 C484.39,-2.9 488.38,0 495.41,0 C495.41,0 501.36,0 501.36,0 C501.36,0 501.36,-5.58 501.36,-5.58 C501.36,-5.58 496.5,-5.58 496.5,-5.58 C492.44,-5.58 490.99,-6.96 490.99,-10.88 C490.99,-10.88 490.99,-34.3 490.99,-34.3 C490.99,-34.3 501.36,-34.3 501.36,-34.3 C501.36,-34.3 501.36,-39.74 501.36,-39.74 C501.36,-39.74 490.99,-39.74 490.99,-39.74 C490.99,-39.74 490.99,-49.74 490.99,-49.74 C490.99,-49.74 484.39,-49.74 484.39,-49.74 C484.39,-49.74 484.39,-39.74 484.39,-39.74 C484.39,-39.74 479.24,-39.74 479.24,-39.74 C479.24,-39.74 479.24,-34.3 479.24,-34.3 C479.24,-34.3 484.39,-34.3 484.39,-34.3 C484.39,-34.3 484.39,-10.88 484.39,-10.88z" style="display: inherit;"></path></g><g fill="rgb(0,0,0)" font-size="72" font-family="Poppins" font-style="normal" font-weight="400" aria-label="min" transform="matrix(1,0,0,1,798,1280)" opacity="1" style="display: block;"><path stroke-linecap="butt" stroke-linejoin="round" stroke-miterlimit="4" d=" M62.94,0 C62.94,0 69.46,0 69.46,0 C69.46,0 69.46,-23.42 69.46,-23.42 C69.46,-34.8 62.43,-40.46 53.37,-40.46 C47.28,-40.46 41.62,-37.34 39.3,-31.61 C36.69,-37.56 31.25,-40.46 24.73,-40.46 C19.5,-40.46 14.79,-38.21 12.18,-34.01 C12.18,-34.01 12.18,-39.74 12.18,-39.74 C12.18,-39.74 5.58,-39.74 5.58,-39.74 C5.58,-39.74 5.58,0 5.58,0 C5.58,0 12.18,0 12.18,0 C12.18,0 12.18,-21.9 12.18,-21.9 C12.18,-30.45 16.75,-34.73 23.42,-34.73 C29.95,-34.73 34.3,-30.6 34.3,-22.48 C34.3,-22.48 34.3,0 34.3,0 C34.3,0 40.82,0 40.82,0 C40.82,0 40.82,-21.9 40.82,-21.9 C40.82,-30.45 45.39,-34.73 52.06,-34.73 C58.59,-34.73 62.94,-30.6 62.94,-22.48 C62.94,-22.48 62.94,0 62.94,0z M77.58,0 C77.58,0 84.18,0 84.18,0 C84.18,0 84.18,-39.74 84.18,-39.74 C84.18,-39.74 77.58,-39.74 77.58,-39.74 C77.58,-39.74 77.58,0 77.58,0z M80.99,-46.19 C83.38,-46.19 85.34,-48.15 85.34,-50.68 C85.34,-53.22 83.38,-55.18 80.99,-55.18 C78.45,-55.18 76.5,-53.22 76.5,-50.68 C76.5,-48.15 78.45,-46.19 80.99,-46.19z M122.21,0 C122.21,0 128.74,0 128.74,0 C128.74,0 128.74,-23.42 128.74,-23.42 C128.74,-34.8 121.7,-40.46 112.5,-40.46 C107.13,-40.46 102.34,-38.21 99.73,-34.08 C99.73,-34.08 99.73,-39.74 99.73,-39.74 C99.73,-39.74 93.14,-39.74 93.14,-39.74 C93.14,-39.74 93.14,0 93.14,0 C93.14,0 99.73,0 99.73,0 C99.73,0 99.73,-21.97 99.73,-21.97 C99.73,-30.53 104.37,-34.73 111.12,-34.73 C117.79,-34.73 122.21,-30.6 122.21,-22.48 C122.21,-22.48 122.21,0 122.21,0z" style="display: inherit;"></path></g></g><g transform="matrix(1,0,0,1,957.0159912109375,957.0159912109375)" opacity="1" style="display: block;"><g opacity="1" transform="matrix(0.9236000180244446,0,0,0.9236000180244446,-7.015999794006348,-7.015999794006348)"><path stroke-linecap="butt" stroke-linejoin="miter" fill-opacity="0" stroke-miterlimit="4" stroke="rgb(235,235,235)" stroke-opacity="1" stroke-width="94" d=" M53.816001892089844,-855.3189697265625 C501.75799560546875,-827.5050048828125 856.9840087890625,-454.89599609375 856.9840087890625,0 C856.9844970703125,472.9697570800781 472.9697570800781,856.9844970703125 0,856.9844970703125 C-472.9697570800781,856.9844970703125 -856.9844970703125,472.9697570800781 -856.9844970703125,0 C-856.9844970703125,-472.9697570800781 -472.9697570800781,-856.9844970703125 0,-856.9844970703125"></path></g></g><g transform="matrix(1,0,0,1,957.0159912109375,957.0159912109375)" opacity="1" style="display: block;"><g opacity="1" transform="matrix(0.9236000180244446,0,0,0.9236000180244446,-3.0309998989105225,-5.921999931335449)"><path stroke-linecap="butt" stroke-linejoin="miter" fill-opacity="0" stroke-miterlimit="4" stroke="rgb(65,0,250)" stroke-opacity="1" stroke-width="94" d=" M-660.2169799804688,-546.155029296875 C-502.9700012207031,-735.9769897460938 -265.5,-856.9840087890625 0,-856.9840087890625"></path></g></g><g transform="matrix(1.2699958086013794,0,0,1.2699958086013794,1130.33203125,1150.5572509765625)" opacity="1" style="display: block;"><g opacity="1" transform="matrix(1,0,0,1,-613.3519897460938,-561.3519897460938)"><path fill="rgb(63,0,255)" fill-opacity="1" d=" M0,-66.64849853515625 C36.78330612182617,-66.64849853515625 66.64849853515625,-36.78330612182617 66.64849853515625,0 C66.64849853515625,36.78330612182617 36.78330612182617,66.64849853515625 0,66.64849853515625 C-36.78330612182617,66.64849853515625 -66.64849853515625,36.78330612182617 -66.64849853515625,0 C-66.64849853515625,-36.78330612182617 -36.78330612182617,-66.64849853515625 0,-66.64849853515625z"></path><path stroke-linecap="butt" stroke-linejoin="miter" fill-opacity="0" stroke-miterlimit="4" stroke="rgb(65,0,250)" stroke-opacity="0.1" stroke-width="41.12123991764078" d=" M0,-66.64849853515625 C36.78330612182617,-66.64849853515625 66.64849853515625,-36.78330612182617 66.64849853515625,0 C66.64849853515625,36.78330612182617 36.78330612182617,66.64849853515625 0,66.64849853515625 C-36.78330612182617,66.64849853515625 -66.64849853515625,36.78330612182617 -66.64849853515625,0 C-66.64849853515625,-36.78330612182617 -36.78330612182617,-66.64849853515625 0,-66.64849853515625z"></path></g></g></g></g></svg>