<svg width="425" height="308" viewBox="0 0 425 308" fill="none" xmlns="http://www.w3.org/2000/svg">
<g clip-path="url(#clip0_1681_229561)">
<g filter="url(#filter0_d_1681_229561)">
<g clip-path="url(#clip1_1681_229561)">
<circle cx="219.237" cy="88.8465" r="34.9793" fill="#C9CCFF"/>
<rect x="203.48" y="65.9219" width="31.2349" height="19.0126" rx="5.43216" fill="#F67B37"/>
<path d="M209.176 103.34C213.691 102.285 218.207 105.09 219.262 109.606V109.606C220.317 114.121 217.512 118.637 212.997 119.692L168.879 130.002L165.058 113.65L209.176 103.34Z" fill="#58C1A2"/>
<path d="M265.253 114.436C269.732 115.636 272.39 120.24 271.19 124.719V124.719C269.99 129.199 265.386 131.857 260.907 130.656L224.562 120.918L228.908 104.698L265.253 114.436Z" fill="#58C1A2"/>
<path d="M196.098 124.106C196.098 111.785 206.086 101.797 218.407 101.797V101.797C230.728 101.797 240.716 111.785 240.716 124.106L240.716 171.445L196.098 171.445L196.098 124.106Z" fill="#58C1A2"/>
<circle cx="218.801" cy="83.5277" r="15.2375" transform="rotate(-11.1217 218.801 83.5277)" fill="#FCCDC3"/>
<ellipse cx="218.942" cy="72.9675" rx="13.0591" ry="4.89714" fill="#F67B37"/>
<rect x="212.793" y="91.6094" width="12.9261" height="16.81" rx="6.46303" transform="rotate(0.787123 212.793 91.6094)" fill="#FCCDC3"/>
</g>
</g>
<path fill-rule="evenodd" clip-rule="evenodd" d="M188.213 75.2722C184.446 75.2201 175.391 68.4801 175.391 63.0839C175.391 59.3442 178.422 56.3125 182.162 56.3125C184.841 56.3125 187.157 57.8684 188.255 60.126C189.353 57.8684 191.669 56.3125 194.348 56.3125C198.088 56.3125 201.119 59.3442 201.119 63.0839C201.119 68.4801 192.062 75.2201 188.295 75.2722C188.282 75.2724 188.269 75.2725 188.256 75.2725C188.256 75.2725 188.255 75.2725 188.254 75.2725C188.253 75.2725 188.252 75.2725 188.251 75.2725C188.238 75.2725 188.225 75.2724 188.213 75.2722Z" fill="#F285F5"/>
<g filter="url(#filter1_d_1681_229561)">
<g clip-path="url(#clip2_1681_229561)">
<circle cx="154.405" cy="243.882" r="22.4914" fill="#C9CCFF"/>
<rect x="144.273" y="229.148" width="20.0838" height="12.2249" rx="3.49284" fill="black"/>
<path d="M147.934 253.213C150.838 252.534 153.741 254.338 154.42 257.241V257.241C155.098 260.145 153.295 263.048 150.391 263.727L122.024 270.356L119.567 259.842L147.934 253.213Z" fill="#4100FA"/>
<path d="M183.992 260.345C186.872 261.117 188.581 264.077 187.81 266.957V266.957C187.038 269.837 184.078 271.546 181.198 270.774L157.828 264.512L160.623 254.083L183.992 260.345Z" fill="#4100FA"/>
<path d="M139.523 266.563C139.523 258.641 145.946 252.219 153.868 252.219V252.219C161.79 252.219 168.213 258.641 168.213 266.563L168.213 297.002L139.523 297.002L139.523 266.563Z" fill="#4100FA"/>
<circle cx="154.125" cy="240.474" r="9.7976" transform="rotate(-11.1217 154.125 240.474)" fill="#503D16"/>
<ellipse cx="154.213" cy="233.672" rx="8.39688" ry="3.14883" fill="black"/>
<rect x="150.262" y="245.664" width="8.31136" height="10.8087" rx="4.15568" transform="rotate(0.787123 150.262 245.664)" fill="#503D16"/>
</g>
</g>
<g filter="url(#filter2_d_1681_229561)">
<g clip-path="url(#clip3_1681_229561)">
<circle cx="252.417" cy="209.182" r="34.9793" fill="#BCF6EB"/>
<circle cx="233.135" cy="202.522" r="4.89714" fill="black"/>
<circle cx="270.135" cy="201.444" r="4.89714" fill="black"/>
<circle cx="238.585" cy="198.178" r="4.89714" fill="black"/>
<circle cx="244.022" cy="194.921" r="4.89714" fill="black"/>
<circle cx="235.315" cy="194.921" r="4.89714" fill="black"/>
<circle cx="241.842" cy="189.467" r="4.89714" fill="black"/>
<circle cx="248.37" cy="186.21" r="4.89714" fill="black"/>
<circle cx="255.991" cy="186.21" r="4.89714" fill="black"/>
<circle cx="262.518" cy="189.467" r="4.89714" fill="black"/>
<circle cx="267.967" cy="194.921" r="4.89714" fill="black"/>
<circle cx="250.542" cy="192.741" r="4.89714" fill="black"/>
<circle cx="258.171" cy="193.819" r="4.89714" fill="black"/>
<circle cx="263.62" cy="197.1" r="4.89714" fill="black"/>
<circle cx="267.967" cy="201.444" r="4.89714" fill="black"/>
<circle cx="266.878" cy="207.975" r="4.89714" fill="black"/>
<circle cx="236.405" cy="209.061" r="4.89714" fill="black"/>
<path d="M297.398 237.889C301.877 239.09 304.535 243.694 303.335 248.173V248.173C302.135 252.652 297.531 255.31 293.052 254.11L256.706 244.371L261.053 228.151L297.398 237.889Z" fill="#C9CCFF"/>
<path d="M206.966 237.475C202.486 238.676 199.828 243.279 201.029 247.759V247.759C202.229 252.238 206.833 254.896 211.312 253.695L247.657 243.957L243.311 227.737L206.966 237.475Z" fill="#C9CCFF"/>
<path d="M229.328 248.239C229.328 235.918 239.316 225.93 251.637 225.93V225.93C263.958 225.93 273.947 235.918 273.947 248.239L273.947 295.578L229.328 295.578L229.328 248.239Z" fill="#C9CCFF"/>
<circle cx="252.035" cy="207.661" r="15.2375" transform="rotate(-11.1217 252.035 207.661)" fill="#503D16"/>
<ellipse cx="250.628" cy="192.811" rx="4.21884" ry="4.35302" transform="rotate(45 250.628 192.811)" fill="black"/>
<ellipse cx="258.257" cy="194.983" rx="4.21884" ry="4.35302" transform="rotate(45 258.257 194.983)" fill="black"/>
<ellipse cx="243.011" cy="196.085" rx="4.21884" ry="4.35302" transform="rotate(45 243.011 196.085)" fill="black"/>
<ellipse cx="237.569" cy="202.608" rx="4.21884" ry="4.35302" transform="rotate(45 237.569 202.608)" fill="black"/>
<ellipse cx="250.628" cy="193.905" rx="4.21884" ry="4.35302" transform="rotate(45 250.628 193.905)" fill="black"/>
<ellipse cx="263.682" cy="199.342" rx="4.21884" ry="4.35302" transform="rotate(45 263.682 199.342)" fill="black"/>
<rect x="246.016" y="215.742" width="12.9261" height="16.81" rx="6.46303" transform="rotate(0.787123 246.016 215.742)" fill="#503D16"/>
</g>
</g>
<g filter="url(#filter3_d_1681_229561)">
<g clip-path="url(#clip4_1681_229561)">
<circle cx="131.893" cy="155.003" r="34.9793" fill="#F285F5"/>
<path d="M121.836 169.497C126.351 168.441 130.867 171.246 131.922 175.762V175.762C132.978 180.277 130.173 184.793 125.657 185.848L81.5393 196.158L77.718 179.807L121.836 169.497Z" fill="#58C1A2"/>
<path d="M177.913 180.585C182.392 181.785 185.051 186.389 183.85 190.868V190.868C182.65 195.347 178.046 198.005 173.567 196.805L137.222 187.066L141.568 170.846L177.913 180.585Z" fill="#58C1A2"/>
<path d="M108.754 190.27C108.754 177.949 118.742 167.961 131.063 167.961V167.961C143.384 167.961 153.372 177.949 153.372 190.27L153.372 237.609L108.754 237.609L108.754 190.27Z" fill="#58C1A2"/>
<circle cx="131.461" cy="149.684" r="15.2375" transform="rotate(-11.1217 131.461 149.684)" fill="#FCCDC3"/>
<ellipse cx="131.602" cy="139.124" rx="13.0591" ry="4.89714" fill="#F67B37"/>
<rect x="125.449" y="157.773" width="12.9261" height="16.81" rx="6.46303" transform="rotate(0.787123 125.449 157.773)" fill="#FCCDC3"/>
<circle cx="7.15229" cy="7.15229" r="7.15229" transform="matrix(-0.928257 -0.371939 -0.371939 0.928257 153.953 154.227)" fill="#FCCDC3"/>
<ellipse cx="131.649" cy="158.609" rx="23.9416" ry="29.3829" fill="black"/>
<path d="M176.866 177.108C181.346 178.308 184.004 182.912 182.803 187.391V187.391C181.603 191.87 176.999 194.528 172.52 193.328L136.175 183.59L140.521 167.37L176.866 177.108Z" fill="#4100FA"/>
<path d="M86.4343 176.686C81.9552 177.886 79.2971 182.49 80.4973 186.969V186.969C81.6975 191.449 86.3014 194.107 90.7805 192.906L127.126 183.168L122.779 166.948L86.4343 176.686Z" fill="#4100FA"/>
<path d="M108.797 187.458C108.797 175.137 118.785 165.148 131.106 165.148V165.148C143.427 165.148 153.415 175.137 153.415 187.458L153.415 234.797L108.797 234.797L108.797 187.458Z" fill="#4100FA"/>
<circle cx="131.5" cy="146.856" r="15.2375" transform="rotate(-11.1217 131.5 146.856)" fill="#FCCDC3"/>
<ellipse cx="127.69" cy="139.637" rx="10.9248" ry="8.73891" fill="black"/>
<ellipse cx="137.684" cy="136.885" rx="10.851" ry="4.99643" transform="rotate(30 137.684 136.885)" fill="black"/>
<rect x="125.492" y="154.945" width="12.9261" height="16.81" rx="6.46303" transform="rotate(0.787123 125.492 154.945)" fill="#FCCDC3"/>
</g>
</g>
<g filter="url(#filter4_d_1681_229561)">
<g clip-path="url(#clip5_1681_229561)">
<circle cx="305.924" cy="132.662" r="23.4593" fill="#FCCDC3"/>
<path d="M299.177 142.383C302.205 141.675 305.234 143.556 305.942 146.585V146.585C306.649 149.613 304.768 152.642 301.74 153.349L272.152 160.264L269.589 149.298L299.177 142.383Z" fill="#58C1A2"/>
<path d="M336.784 149.824C339.787 150.629 341.57 153.716 340.765 156.72V156.72C339.96 159.724 336.873 161.507 333.869 160.702L309.493 154.171L312.408 143.292L336.784 149.824Z" fill="#58C1A2"/>
<path d="M290.398 156.321C290.398 148.058 297.097 141.359 305.36 141.359V141.359C313.624 141.359 320.322 148.058 320.322 156.321L320.322 188.07L290.398 188.07L290.398 156.321Z" fill="#58C1A2"/>
<circle cx="305.624" cy="129.103" r="10.2192" transform="rotate(-11.1217 305.624 129.103)" fill="#FCCDC3"/>
<ellipse cx="305.727" cy="122.019" rx="8.75821" ry="3.28433" fill="#F67B37"/>
<rect x="301.602" y="134.523" width="8.66901" height="11.2738" rx="4.33451" transform="rotate(0.787123 301.602 134.523)" fill="#FCCDC3"/>
<circle cx="4.79677" cy="4.79677" r="4.79677" transform="matrix(-0.928257 -0.371939 -0.371939 0.928257 320.711 132.141)" fill="#FCCDC3"/>
<ellipse cx="305.756" cy="135.089" rx="16.0567" ry="19.706" fill="#503D16"/>
<path d="M336.084 147.488C339.088 148.293 340.871 151.38 340.066 154.384V154.384C339.261 157.388 336.173 159.171 333.17 158.366L308.794 151.835L311.709 140.957L336.084 147.488Z" fill="#AF2896"/>
<path d="M275.427 147.214C272.423 148.019 270.641 151.107 271.446 154.111V154.111C272.251 157.115 275.338 158.898 278.342 158.093L302.718 151.561L299.803 140.683L275.427 147.214Z" fill="#AF2896"/>
<path d="M290.43 154.423C290.43 146.16 297.128 139.461 305.392 139.461V139.461C313.655 139.461 320.354 146.16 320.354 154.423L320.354 186.171L290.43 186.171L290.43 154.423Z" fill="#AF2896"/>
<circle cx="305.655" cy="127.205" r="10.2192" transform="rotate(-11.1217 305.655 127.205)" fill="#FCCDC3"/>
<ellipse cx="303.1" cy="122.369" rx="7.32688" ry="5.86085" fill="#503D16"/>
<ellipse cx="309.807" cy="120.517" rx="7.27738" ry="3.35091" transform="rotate(30 309.807 120.517)" fill="#503D16"/>
<rect x="301.625" y="132.633" width="8.66901" height="11.2738" rx="4.33451" transform="rotate(0.787123 301.625 132.633)" fill="#FCCDC3"/>
</g>
</g>
<path fill-rule="evenodd" clip-rule="evenodd" d="M226.135 190.382C222.368 190.329 213.313 183.589 213.313 178.193C213.313 174.454 216.344 171.422 220.084 171.422C222.763 171.422 225.079 172.978 226.177 175.235C227.275 172.978 229.591 171.422 232.27 171.422C236.01 171.422 239.041 174.454 239.041 178.193C239.041 183.589 229.983 190.329 226.217 190.382C226.204 190.382 226.191 190.382 226.178 190.382C226.177 190.382 226.177 190.382 226.176 190.382C226.175 190.382 226.174 190.382 226.173 190.382C226.16 190.382 226.147 190.382 226.135 190.382Z" fill="#F285F5"/>
<g filter="url(#filter5_d_1681_229561)">
<rect x="76.5273" y="35.9922" width="271.196" height="232.453" rx="7.74845" fill="white" shape-rendering="crispEdges"/>
<path d="M91.8038 49.4987L91.5829 50.5447L92.3849 50.5447L92.3849 51.0096L91.4841 51.0096L91.2343 52.1719L90.7287 52.1719L90.9786 51.0096L89.7582 51.0096L89.5083 52.1719L89.0027 52.1719L89.2526 51.0096L88.3402 51.0096L88.3402 50.5447L89.3514 50.5447L89.5722 49.4987L88.6715 49.4987L88.6715 49.0338L89.671 49.0338L89.9209 47.8715L90.4265 47.8715L90.1766 49.0338L91.397 49.0338L91.6469 47.8715L92.1524 47.8715L91.9026 49.0338L92.7103 49.0338L92.7103 49.4987L91.8038 49.4987ZM91.2982 49.4987L90.0778 49.4987L89.857 50.5447L91.0774 50.5447L91.2982 49.4987Z" fill="#252525"/>
<rect x="88.1484" y="47.1172" width="7.74845" height="4.84278" fill="#C4C4C4"/>
<path d="M109.214 52.1719L108.685 52.1719L106.558 48.9466L106.558 52.1719L106.03 52.1719L106.03 48.1156L106.558 48.1156L108.685 51.335L108.685 48.1156L109.214 48.1156L109.214 52.1719ZM109.918 50.5679C109.918 50.2425 109.984 49.9578 110.116 49.7137C110.247 49.4657 110.427 49.274 110.656 49.1384C110.889 49.0028 111.146 48.935 111.429 48.935C111.708 48.935 111.95 48.995 112.155 49.1151C112.361 49.2352 112.514 49.3863 112.614 49.5684L112.614 48.9873L113.149 48.9873L113.149 52.1719L112.614 52.1719L112.614 51.5791C112.51 51.7651 112.353 51.9201 112.144 52.044C111.938 52.1641 111.698 52.2242 111.423 52.2242C111.14 52.2242 110.885 52.1544 110.656 52.015C110.427 51.8755 110.247 51.6798 110.116 51.428C109.984 51.1762 109.918 50.8895 109.918 50.5679ZM112.614 50.5738C112.614 50.3336 112.566 50.1243 112.469 49.9461C112.372 49.7679 112.241 49.6323 112.074 49.5393C111.911 49.4425 111.731 49.3941 111.534 49.3941C111.336 49.3941 111.156 49.4405 110.993 49.5335C110.83 49.6265 110.701 49.7621 110.604 49.9403C110.507 50.1185 110.458 50.3277 110.458 50.5679C110.458 50.812 110.507 51.0251 110.604 51.2072C110.701 51.3854 110.83 51.5229 110.993 51.6198C111.156 51.7128 111.336 51.7593 111.534 51.7593C111.731 51.7593 111.911 51.7128 112.074 51.6198C112.241 51.5229 112.372 51.3854 112.469 51.2072C112.566 51.0251 112.614 50.814 112.614 50.5738ZM117.872 48.9291C118.12 48.9291 118.341 48.9815 118.535 49.0861C118.729 49.1868 118.882 49.3398 118.994 49.5452C119.106 49.7505 119.163 50.0004 119.163 50.2948L119.163 52.1719L118.64 52.1719L118.64 50.3704C118.64 50.0527 118.56 49.8105 118.401 49.6439C118.246 49.4735 118.035 49.3882 117.768 49.3882C117.493 49.3882 117.274 49.4774 117.111 49.6556C116.948 49.8299 116.867 50.0837 116.867 50.4169L116.867 52.1719L116.344 52.1719L116.344 50.3704C116.344 50.0527 116.265 49.8105 116.106 49.6439C115.951 49.4735 115.74 49.3882 115.472 49.3882C115.197 49.3882 114.978 49.4774 114.816 49.6556C114.653 49.8299 114.572 50.0837 114.572 50.4169L114.572 52.1719L114.043 52.1719L114.043 48.9873L114.572 48.9873L114.572 49.4464C114.676 49.2798 114.816 49.1519 114.99 49.0628C115.168 48.9737 115.364 48.9291 115.577 48.9291C115.844 48.9291 116.081 48.9892 116.286 49.1093C116.491 49.2294 116.644 49.4057 116.745 49.6381C116.834 49.4134 116.981 49.2391 117.187 49.1151C117.392 48.9911 117.621 48.9291 117.872 48.9291ZM122.936 50.4575C122.936 50.5583 122.93 50.6648 122.918 50.7772L120.373 50.7772C120.392 51.091 120.499 51.337 120.693 51.5152C120.89 51.6895 121.128 51.7767 121.407 51.7767C121.636 51.7767 121.826 51.7244 121.977 51.6198C122.132 51.5113 122.24 51.368 122.302 51.1898L122.872 51.1898C122.787 51.4958 122.616 51.7457 122.36 51.9394C122.105 52.1293 121.787 52.2242 121.407 52.2242C121.105 52.2242 120.834 52.1564 120.594 52.0208C120.357 51.8852 120.171 51.6934 120.036 51.4455C119.9 51.1936 119.832 50.9031 119.832 50.5738C119.832 50.2444 119.898 49.9558 120.03 49.7079C120.162 49.4599 120.346 49.2701 120.582 49.1384C120.822 49.0028 121.097 48.935 121.407 48.935C121.71 48.935 121.977 49.0008 122.209 49.1325C122.442 49.2643 122.62 49.4464 122.744 49.6788C122.872 49.9074 122.936 50.167 122.936 50.4575ZM122.389 50.3471C122.389 50.1457 122.345 49.9733 122.256 49.8299C122.167 49.6827 122.045 49.5723 121.89 49.4987C121.739 49.4212 121.57 49.3824 121.384 49.3824C121.117 49.3824 120.888 49.4677 120.698 49.6381C120.512 49.8086 120.406 50.0449 120.379 50.3471L122.389 50.3471Z" fill="#252525"/>
<rect x="105.582" y="47.1172" width="30.9938" height="4.84278" fill="#C4C4C4"/>
<path d="M314.257 48.1214L314.257 48.5514L313.153 48.5514L313.153 52.1719L312.624 52.1719L312.624 48.5514L311.514 48.5514L311.514 48.1214L314.257 48.1214ZM315.181 48.4701C315.081 48.4701 314.995 48.4352 314.926 48.3654C314.856 48.2957 314.821 48.2105 314.821 48.1098C314.821 48.009 314.856 47.9238 314.926 47.8541C314.995 47.7843 315.081 47.7494 315.181 47.7494C315.278 47.7494 315.36 47.7843 315.425 47.8541C315.495 47.9238 315.53 48.009 315.53 48.1098C315.53 48.2105 315.495 48.2957 315.425 48.3654C315.36 48.4352 315.278 48.4701 315.181 48.4701ZM315.437 48.9873L315.437 52.1719L314.908 52.1719L314.908 48.9873L315.437 48.9873ZM320.168 48.9291C320.416 48.9291 320.637 48.9815 320.831 49.0861C321.024 49.1868 321.177 49.3398 321.29 49.5452C321.402 49.7505 321.458 50.0004 321.458 50.2948L321.458 52.1719L320.935 52.1719L320.935 50.3704C320.935 50.0527 320.856 49.8105 320.697 49.6439C320.542 49.4735 320.331 49.3882 320.063 49.3882C319.788 49.3882 319.569 49.4774 319.407 49.6556C319.244 49.8299 319.163 50.0837 319.163 50.4169L319.163 52.1719L318.64 52.1719L318.64 50.3704C318.64 50.0527 318.56 49.8105 318.401 49.6439C318.246 49.4735 318.035 49.3882 317.768 49.3882C317.493 49.3882 317.274 49.4774 317.111 49.6556C316.949 49.8299 316.867 50.0837 316.867 50.4169L316.867 52.1719L316.338 52.1719L316.338 48.9873L316.867 48.9873L316.867 49.4464C316.972 49.2798 317.111 49.1519 317.286 49.0628C317.464 48.9737 317.659 48.9291 317.873 48.9291C318.14 48.9291 318.376 48.9892 318.582 49.1093C318.787 49.2294 318.94 49.4057 319.041 49.6381C319.13 49.4134 319.277 49.2391 319.482 49.1151C319.688 48.9911 319.916 48.9291 320.168 48.9291ZM325.231 50.4575C325.231 50.5583 325.226 50.6648 325.214 50.7772L322.669 50.7772C322.688 51.091 322.794 51.337 322.988 51.5152C323.186 51.6895 323.424 51.7767 323.703 51.7767C323.932 51.7767 324.121 51.7244 324.272 51.6198C324.427 51.5113 324.536 51.368 324.598 51.1898L325.167 51.1898C325.082 51.4958 324.912 51.7457 324.656 51.9394C324.4 52.1293 324.083 52.2242 323.703 52.2242C323.401 52.2242 323.13 52.1564 322.889 52.0208C322.653 51.8852 322.467 51.6934 322.331 51.4455C322.196 51.1936 322.128 50.9031 322.128 50.5738C322.128 50.2444 322.194 49.9558 322.326 49.7079C322.457 49.4599 322.641 49.2701 322.878 49.1384C323.118 49.0028 323.393 48.935 323.703 48.935C324.005 48.935 324.272 49.0008 324.505 49.1325C324.737 49.2643 324.916 49.4464 325.04 49.6788C325.167 49.9074 325.231 50.167 325.231 50.4575ZM324.685 50.3471C324.685 50.1457 324.64 49.9733 324.551 49.8299C324.462 49.6827 324.34 49.5723 324.185 49.4987C324.034 49.4212 323.866 49.3824 323.68 49.3824C323.412 49.3824 323.184 49.4677 322.994 49.6381C322.808 49.8086 322.701 50.0449 322.674 50.3471L324.685 50.3471ZM328.008 47.8715L328.008 52.1719L327.479 52.1719L327.479 47.8715L328.008 47.8715ZM331.814 50.4575C331.814 50.5583 331.809 50.6648 331.797 50.7772L329.252 50.7772C329.271 51.091 329.378 51.337 329.571 51.5152C329.769 51.6895 330.007 51.7767 330.286 51.7767C330.515 51.7767 330.705 51.7244 330.856 51.6198C331.011 51.5113 331.119 51.368 331.181 51.1898L331.751 51.1898C331.665 51.4958 331.495 51.7457 331.239 51.9394C330.983 52.1293 330.666 52.2242 330.286 52.2242C329.984 52.2242 329.713 52.1564 329.473 52.0208C329.236 51.8852 329.05 51.6934 328.915 51.4455C328.779 51.1936 328.711 50.9031 328.711 50.5738C328.711 50.2444 328.777 49.9558 328.909 49.7079C329.041 49.4599 329.225 49.2701 329.461 49.1384C329.701 49.0028 329.976 48.935 330.286 48.935C330.588 48.935 330.856 49.0008 331.088 49.1325C331.321 49.2643 331.499 49.4464 331.623 49.6788C331.751 49.9074 331.814 50.167 331.814 50.4575ZM331.268 50.3471C331.268 50.1457 331.224 49.9733 331.135 49.8299C331.045 49.6827 330.923 49.5723 330.768 49.4987C330.617 49.4212 330.449 49.3824 330.263 49.3824C329.996 49.3824 329.767 49.4677 329.577 49.6381C329.391 49.8086 329.285 50.0449 329.257 50.3471L331.268 50.3471ZM333.808 49.4231L333.14 49.4231L333.14 52.1719L332.611 52.1719L332.611 49.4231L332.199 49.4231L332.199 48.9873L332.611 48.9873L332.611 48.7606C332.611 48.4042 332.702 48.1446 332.884 47.9819C333.07 47.8153 333.367 47.732 333.774 47.732L333.774 48.1737C333.541 48.1737 333.376 48.2202 333.28 48.3131C333.187 48.4023 333.14 48.5514 333.14 48.7606L333.14 48.9873L333.808 48.9873L333.808 49.4231ZM335.07 49.4231L335.07 51.3002C335.07 51.4551 335.103 51.5656 335.169 51.6314C335.235 51.6934 335.349 51.7244 335.512 51.7244L335.901 51.7244L335.901 52.1719L335.425 52.1719C335.13 52.1719 334.909 52.1041 334.762 51.9685C334.615 51.8329 334.541 51.6101 334.541 51.3002L334.541 49.4231L334.129 49.4231L334.129 48.9873L334.541 48.9873L334.541 48.1853L335.07 48.1853L335.07 48.9873L335.901 48.9873L335.901 49.4231L335.07 49.4231Z" fill="#86868B"/>
<rect x="305.105" y="47.1172" width="30.9938" height="4.84278" fill="#C4C4C4"/>
<g filter="url(#filter6_d_1681_229561)">
<g filter="url(#filter7_i_1681_229561)">
<rect width="271.196" height="30.9938" transform="translate(76.5273 59.2344)" fill="#F285F5"/>
<circle cx="326.412" cy="74.7324" r="8.717" stroke="#F5F5F7" stroke-width="1.93711"/>
<circle cx="326.412" cy="74.7324" r="9.68556" fill="#4100FA"/>
<path d="M323.023 74.4111L325.735 77.6397L329.803 72.7969" stroke="white" stroke-width="1.45283" stroke-linecap="round" stroke-linejoin="round"/>
<rect x="88.1484" y="72.3047" width="7.74845" height="4.84278" fill="#551A30"/>
<rect x="107.035" y="65.0391" width="19.3711" height="19.3711" rx="9.68556" fill="#FFC864"/>
<path d="M115.283 78.0078L114.006 78.0078L115.952 72.3726L117.487 72.3726L119.43 78.0078L118.153 78.0078L116.741 73.6603L116.697 73.6603L115.283 78.0078ZM115.203 75.7928L118.219 75.7928L118.219 76.7228L115.203 76.7228L115.203 75.7928Z" fill="#551A30"/>
<rect width="125.912" height="6.77989" transform="translate(137.543 71.3359)" fill="#AF2896"/>
</g>
<g filter="url(#filter8_i_1681_229561)">
<rect width="271.196" height="30.9938" transform="translate(76.5273 90.2266)" fill="white"/>
<circle cx="326.221" cy="105.225" r="8.71701" stroke="#F5F5F7" stroke-width="1.93711"/>
<path d="M326.221 96.5076C328.042 96.5076 329.818 97.0781 331.298 98.139C332.779 99.1999 333.89 100.698 334.475 102.423C335.061 104.147 335.091 106.012 334.562 107.755C334.034 109.498 332.972 111.032 331.527 112.14C330.082 113.249 328.326 113.877 326.506 113.937C324.686 113.997 322.892 113.484 321.378 112.473C319.863 111.461 318.704 110 318.062 108.295C317.421 106.591 317.329 104.728 317.801 102.969" stroke="#FFC864" stroke-width="1.93711" stroke-linecap="round" stroke-linejoin="round"/>
<rect x="88.1484" y="103.305" width="7.74845" height="4.84278" fill="#C4C4C4"/>
<rect x="107.035" y="96.0391" width="19.3711" height="19.3711" rx="9.68556" fill="#C4C4C4"/>
<path d="M115.287 109.008L114.01 109.008L115.956 103.373L117.491 103.373L119.434 109.008L118.157 109.008L116.745 104.66L116.701 104.66L115.287 109.008ZM115.207 106.793L118.223 106.793L118.223 107.723L115.207 107.723L115.207 106.793Z" fill="white"/>
<rect width="125.912" height="6.77989" transform="translate(137.543 102.336)" fill="#E6E6E6"/>
</g>
<g filter="url(#filter9_i_1681_229561)">
<rect width="271.196" height="30.9938" transform="translate(76.5273 121.219)" fill="white"/>
<circle cx="326.221" cy="136.217" r="8.71701" stroke="#F5F5F7" stroke-width="1.93711"/>
<path d="M326.221 127.5C327.945 127.5 329.63 128.011 331.064 128.969C332.497 129.927 333.614 131.288 334.274 132.881C334.934 134.474 335.107 136.226 334.77 137.917C334.434 139.608 333.604 141.162 332.385 142.381C331.165 143.6 329.612 144.43 327.921 144.766C326.23 145.103 324.478 144.93 322.885 144.27C321.292 143.611 319.931 142.493 318.973 141.06C318.015 139.626 317.504 137.941 317.504 136.217" stroke="#FFC864" stroke-width="1.93711" stroke-linecap="round" stroke-linejoin="round"/>
<rect x="88.1484" y="134.297" width="7.74845" height="4.84278" fill="#C4C4C4"/>
<rect x="107.035" y="127.031" width="19.3711" height="19.3711" rx="9.68556" fill="#C4C4C4"/>
<path d="M115.287 140L114.01 140L115.956 134.365L117.491 134.365L119.434 140L118.157 140L116.745 135.653L116.701 135.653L115.287 140ZM115.207 137.785L118.223 137.785L118.223 138.715L115.207 138.715L115.207 137.785Z" fill="white"/>
<rect width="125.912" height="6.77989" transform="translate(137.543 133.328)" fill="#E6E6E6"/>
</g>
<g filter="url(#filter10_i_1681_229561)">
<rect width="271.196" height="30.9938" transform="translate(76.5273 152.219)" fill="white"/>
<circle cx="326.221" cy="167.217" r="8.71701" stroke="#F5F5F7" stroke-width="1.93711"/>
<path d="M326.221 158.5C327.848 158.5 329.442 158.955 330.824 159.814C332.206 160.673 333.319 161.902 334.039 163.361C334.758 164.821 335.055 166.452 334.896 168.071C334.736 169.69 334.127 171.233 333.136 172.523C332.146 173.814 330.814 174.802 329.291 175.375C327.769 175.948 326.116 176.084 324.52 175.766C322.924 175.449 321.449 174.691 320.262 173.579C319.074 172.467 318.222 171.044 317.801 169.473" stroke="#FFC864" stroke-width="1.93711" stroke-linecap="round" stroke-linejoin="round"/>
<rect x="88.1484" y="165.297" width="7.74845" height="4.84278" fill="#C4C4C4"/>
<rect x="107.035" y="158.031" width="19.3711" height="19.3711" rx="9.68556" fill="#C4C4C4"/>
<path d="M115.287 171L114.01 171L115.956 165.365L117.491 165.365L119.434 171L118.157 171L116.745 166.653L116.701 166.653L115.287 171ZM115.207 168.785L118.223 168.785L118.223 169.715L115.207 169.715L115.207 168.785Z" fill="white"/>
<rect width="125.912" height="6.77989" transform="translate(137.543 164.328)" fill="#E6E6E6"/>
</g>
<g filter="url(#filter11_i_1681_229561)">
<rect width="271.196" height="30.9938" transform="translate(76.5273 183.211)" fill="white"/>
<circle cx="326.221" cy="198.209" r="8.71701" stroke="#F5F5F7" stroke-width="1.93711"/>
<path d="M326.221 189.492C327.654 189.492 329.066 189.846 330.33 190.521C331.594 191.197 332.672 192.174 333.469 193.366C334.265 194.558 334.755 195.928 334.896 197.355C335.036 198.781 334.823 200.22 334.274 201.545C333.726 202.869 332.859 204.038 331.751 204.947C330.643 205.857 329.327 206.479 327.921 206.759C326.515 207.038 325.062 206.967 323.69 206.551C322.319 206.135 321.071 205.387 320.057 204.373" stroke="#FFC864" stroke-width="1.93711" stroke-linecap="round" stroke-linejoin="round"/>
<rect x="88.1484" y="196.289" width="7.74845" height="4.84278" fill="#C4C4C4"/>
<rect x="107.035" y="189.023" width="19.3711" height="19.3711" rx="9.68556" fill="#C4C4C4"/>
<path d="M115.287 201.992L114.01 201.992L115.956 196.357L117.491 196.357L119.434 201.992L118.157 201.992L116.745 197.645L116.701 197.645L115.287 201.992ZM115.207 199.777L118.223 199.777L118.223 200.707L115.207 200.707L115.207 199.777Z" fill="white"/>
<rect width="125.912" height="6.77989" transform="translate(137.543 195.32)" fill="#E6E6E6"/>
</g>
<g filter="url(#filter12_i_1681_229561)">
<rect width="271.196" height="30.9938" transform="translate(76.5273 214.203)" fill="white"/>
<circle cx="326.221" cy="229.201" r="8.71701" stroke="#F5F5F7" stroke-width="1.93711"/>
<path d="M326.221 220.484C327.558 220.484 328.877 220.792 330.076 221.383C331.275 221.975 332.322 222.834 333.136 223.895C333.95 224.955 334.509 226.189 334.77 227.501C335.031 228.812 334.987 230.166 334.641 231.457C334.295 232.749 333.656 233.943 332.775 234.949C331.893 235.954 330.792 236.743 329.557 237.255C328.321 237.766 326.985 237.987 325.651 237.9C324.316 237.812 323.02 237.419 321.862 236.75" stroke="#FFC864" stroke-width="1.93711" stroke-linecap="round" stroke-linejoin="round"/>
<rect x="88.1484" y="227.281" width="7.74845" height="4.84278" fill="#C4C4C4"/>
<rect x="107.035" y="220.016" width="19.3711" height="19.3711" rx="9.68556" fill="#C4C4C4"/>
<path d="M115.287 232.984L114.01 232.984L115.956 227.349L117.491 227.349L119.434 232.984L118.157 232.984L116.745 228.637L116.701 228.637L115.287 232.984ZM115.207 230.769L118.223 230.769L118.223 231.699L115.207 231.699L115.207 230.769Z" fill="white"/>
<rect width="125.912" height="6.77989" transform="translate(137.543 226.312)" fill="#E6E6E6"/>
</g>
</g>
</g>
</g>
<defs>
<filter id="filter0_d_1681_229561" x="184.258" y="53.8672" width="76.7285" height="76.7324" filterUnits="userSpaceOnUse" color-interpolation-filters="sRGB">
<feFlood flood-opacity="0" result="BackgroundImageFix"/>
<feColorMatrix in="SourceAlpha" type="matrix" values="0 0 0 0 0 0 0 0 0 0 0 0 0 0 0 0 0 0 127 0" result="hardAlpha"/>
<feOffset dx="6.77143" dy="6.77143"/>
<feComposite in2="hardAlpha" operator="out"/>
<feColorMatrix type="matrix" values="0 0 0 0 0 0 0 0 0 0 0 0 0 0 0 0 0 0 0.05 0"/>
<feBlend mode="color-burn" in2="BackgroundImageFix" result="effect1_dropShadow_1681_229561"/>
<feBlend mode="normal" in="SourceGraphic" in2="effect1_dropShadow_1681_229561" result="shape"/>
</filter>
<filter id="filter1_d_1681_229561" x="131.914" y="221.391" width="51.7558" height="51.7558" filterUnits="userSpaceOnUse" color-interpolation-filters="sRGB">
<feFlood flood-opacity="0" result="BackgroundImageFix"/>
<feColorMatrix in="SourceAlpha" type="matrix" values="0 0 0 0 0 0 0 0 0 0 0 0 0 0 0 0 0 0 127 0" result="hardAlpha"/>
<feOffset dx="6.77143" dy="6.77143"/>
<feComposite in2="hardAlpha" operator="out"/>
<feColorMatrix type="matrix" values="0 0 0 0 0 0 0 0 0 0 0 0 0 0 0 0 0 0 0.05 0"/>
<feBlend mode="color-burn" in2="BackgroundImageFix" result="effect1_dropShadow_1681_229561"/>
<feBlend mode="normal" in="SourceGraphic" in2="effect1_dropShadow_1681_229561" result="shape"/>
</filter>
<filter id="filter2_d_1681_229561" x="217.438" y="174.203" width="76.7285" height="76.7324" filterUnits="userSpaceOnUse" color-interpolation-filters="sRGB">
<feFlood flood-opacity="0" result="BackgroundImageFix"/>
<feColorMatrix in="SourceAlpha" type="matrix" values="0 0 0 0 0 0 0 0 0 0 0 0 0 0 0 0 0 0 127 0" result="hardAlpha"/>
<feOffset dx="6.77143" dy="6.77143"/>
<feComposite in2="hardAlpha" operator="out"/>
<feColorMatrix type="matrix" values="0 0 0 0 0 0 0 0 0 0 0 0 0 0 0 0 0 0 0.05 0"/>
<feBlend mode="color-burn" in2="BackgroundImageFix" result="effect1_dropShadow_1681_229561"/>
<feBlend mode="normal" in="SourceGraphic" in2="effect1_dropShadow_1681_229561" result="shape"/>
</filter>
<filter id="filter3_d_1681_229561" x="96.9141" y="120.023" width="76.7285" height="76.7324" filterUnits="userSpaceOnUse" color-interpolation-filters="sRGB">
<feFlood flood-opacity="0" result="BackgroundImageFix"/>
<feColorMatrix in="SourceAlpha" type="matrix" values="0 0 0 0 0 0 0 0 0 0 0 0 0 0 0 0 0 0 127 0" result="hardAlpha"/>
<feOffset dx="6.77143" dy="6.77143"/>
<feComposite in2="hardAlpha" operator="out"/>
<feColorMatrix type="matrix" values="0 0 0 0 0 0 0 0 0 0 0 0 0 0 0 0 0 0 0.05 0"/>
<feBlend mode="color-burn" in2="BackgroundImageFix" result="effect1_dropShadow_1681_229561"/>
<feBlend mode="normal" in="SourceGraphic" in2="effect1_dropShadow_1681_229561" result="shape"/>
</filter>
<filter id="filter4_d_1681_229561" x="282.465" y="109.203" width="53.6894" height="53.6933" filterUnits="userSpaceOnUse" color-interpolation-filters="sRGB">
<feFlood flood-opacity="0" result="BackgroundImageFix"/>
<feColorMatrix in="SourceAlpha" type="matrix" values="0 0 0 0 0 0 0 0 0 0 0 0 0 0 0 0 0 0 127 0" result="hardAlpha"/>
<feOffset dx="6.77143" dy="6.77143"/>
<feComposite in2="hardAlpha" operator="out"/>
<feColorMatrix type="matrix" values="0 0 0 0 0 0 0 0 0 0 0 0 0 0 0 0 0 0 0.05 0"/>
<feBlend mode="color-burn" in2="BackgroundImageFix" result="effect1_dropShadow_1681_229561"/>
<feBlend mode="normal" in="SourceGraphic" in2="effect1_dropShadow_1681_229561" result="shape"/>
</filter>
<filter id="filter5_d_1681_229561" x="76.5273" y="35.9922" width="418.108" height="239.893" filterUnits="userSpaceOnUse" color-interpolation-filters="sRGB">
<feFlood flood-opacity="0" result="BackgroundImageFix"/>
<feColorMatrix in="SourceAlpha" type="matrix" values="0 0 0 0 0 0 0 0 0 0 0 0 0 0 0 0 0 0 127 0" result="hardAlpha"/>
<feOffset dx="7.44021" dy="7.44021"/>
<feComposite in2="hardAlpha" operator="out"/>
<feColorMatrix type="matrix" values="0 0 0 0 0 0 0 0 0 0 0 0 0 0 0 0 0 0 0.05 0"/>
<feBlend mode="color-burn" in2="BackgroundImageFix" result="effect1_dropShadow_1681_229561"/>
<feBlend mode="normal" in="SourceGraphic" in2="effect1_dropShadow_1681_229561" result="shape"/>
</filter>
<filter id="filter6_d_1681_229561" x="76.5273" y="59.2344" width="410.668" height="186.445" filterUnits="userSpaceOnUse" color-interpolation-filters="sRGB">
<feFlood flood-opacity="0" result="BackgroundImageFix"/>
<feColorMatrix in="SourceAlpha" type="matrix" values="0 0 0 0 0 0 0 0 0 0 0 0 0 0 0 0 0 0 127 0" result="hardAlpha"/>
<feOffset dy="0.484278"/>
<feColorMatrix type="matrix" values="0 0 0 0 0 0 0 0 0 0 0 0 0 0 0 0 0 0 0.1 0"/>
<feBlend mode="normal" in2="BackgroundImageFix" result="effect1_dropShadow_1681_229561"/>
<feBlend mode="normal" in="SourceGraphic" in2="effect1_dropShadow_1681_229561" result="shape"/>
</filter>
<filter id="filter7_i_1681_229561" x="76.5273" y="59.2344" width="271.195" height="30.9922" filterUnits="userSpaceOnUse" color-interpolation-filters="sRGB">
<feFlood flood-opacity="0" result="BackgroundImageFix"/>
<feBlend mode="normal" in="SourceGraphic" in2="BackgroundImageFix" result="shape"/>
<feColorMatrix in="SourceAlpha" type="matrix" values="0 0 0 0 0 0 0 0 0 0 0 0 0 0 0 0 0 0 127 0" result="hardAlpha"/>
<feOffset dy="0.484278"/>
<feComposite in2="hardAlpha" operator="arithmetic" k2="-1" k3="1"/>
<feColorMatrix type="matrix" values="0 0 0 0 0.901961 0 0 0 0 0.901961 0 0 0 0 0.901961 0 0 0 1 0"/>
<feBlend mode="normal" in2="shape" result="effect1_innerShadow_1681_229561"/>
</filter>
<filter id="filter8_i_1681_229561" x="76.5273" y="90.2266" width="271.195" height="30.9922" filterUnits="userSpaceOnUse" color-interpolation-filters="sRGB">
<feFlood flood-opacity="0" result="BackgroundImageFix"/>
<feBlend mode="normal" in="SourceGraphic" in2="BackgroundImageFix" result="shape"/>
<feColorMatrix in="SourceAlpha" type="matrix" values="0 0 0 0 0 0 0 0 0 0 0 0 0 0 0 0 0 0 127 0" result="hardAlpha"/>
<feOffset dy="0.484278"/>
<feComposite in2="hardAlpha" operator="arithmetic" k2="-1" k3="1"/>
<feColorMatrix type="matrix" values="0 0 0 0 0.901961 0 0 0 0 0.901961 0 0 0 0 0.901961 0 0 0 1 0"/>
<feBlend mode="normal" in2="shape" result="effect1_innerShadow_1681_229561"/>
</filter>
<filter id="filter9_i_1681_229561" x="76.5273" y="121.219" width="271.195" height="30.9922" filterUnits="userSpaceOnUse" color-interpolation-filters="sRGB">
<feFlood flood-opacity="0" result="BackgroundImageFix"/>
<feBlend mode="normal" in="SourceGraphic" in2="BackgroundImageFix" result="shape"/>
<feColorMatrix in="SourceAlpha" type="matrix" values="0 0 0 0 0 0 0 0 0 0 0 0 0 0 0 0 0 0 127 0" result="hardAlpha"/>
<feOffset dy="0.484278"/>
<feComposite in2="hardAlpha" operator="arithmetic" k2="-1" k3="1"/>
<feColorMatrix type="matrix" values="0 0 0 0 0.901961 0 0 0 0 0.901961 0 0 0 0 0.901961 0 0 0 1 0"/>
<feBlend mode="normal" in2="shape" result="effect1_innerShadow_1681_229561"/>
</filter>
<filter id="filter10_i_1681_229561" x="76.5273" y="152.219" width="271.195" height="30.9922" filterUnits="userSpaceOnUse" color-interpolation-filters="sRGB">
<feFlood flood-opacity="0" result="BackgroundImageFix"/>
<feBlend mode="normal" in="SourceGraphic" in2="BackgroundImageFix" result="shape"/>
<feColorMatrix in="SourceAlpha" type="matrix" values="0 0 0 0 0 0 0 0 0 0 0 0 0 0 0 0 0 0 127 0" result="hardAlpha"/>
<feOffset dy="0.484278"/>
<feComposite in2="hardAlpha" operator="arithmetic" k2="-1" k3="1"/>
<feColorMatrix type="matrix" values="0 0 0 0 0.901961 0 0 0 0 0.901961 0 0 0 0 0.901961 0 0 0 1 0"/>
<feBlend mode="normal" in2="shape" result="effect1_innerShadow_1681_229561"/>
</filter>
<filter id="filter11_i_1681_229561" x="76.5273" y="183.211" width="271.195" height="30.9922" filterUnits="userSpaceOnUse" color-interpolation-filters="sRGB">
<feFlood flood-opacity="0" result="BackgroundImageFix"/>
<feBlend mode="normal" in="SourceGraphic" in2="BackgroundImageFix" result="shape"/>
<feColorMatrix in="SourceAlpha" type="matrix" values="0 0 0 0 0 0 0 0 0 0 0 0 0 0 0 0 0 0 127 0" result="hardAlpha"/>
<feOffset dy="0.484278"/>
<feComposite in2="hardAlpha" operator="arithmetic" k2="-1" k3="1"/>
<feColorMatrix type="matrix" values="0 0 0 0 0.901961 0 0 0 0 0.901961 0 0 0 0 0.901961 0 0 0 1 0"/>
<feBlend mode="normal" in2="shape" result="effect1_innerShadow_1681_229561"/>
</filter>
<filter id="filter12_i_1681_229561" x="76.5273" y="214.203" width="271.195" height="30.9922" filterUnits="userSpaceOnUse" color-interpolation-filters="sRGB">
<feFlood flood-opacity="0" result="BackgroundImageFix"/>
<feBlend mode="normal" in="SourceGraphic" in2="BackgroundImageFix" result="shape"/>
<feColorMatrix in="SourceAlpha" type="matrix" values="0 0 0 0 0 0 0 0 0 0 0 0 0 0 0 0 0 0 127 0" result="hardAlpha"/>
<feOffset dy="0.484278"/>
<feComposite in2="hardAlpha" operator="arithmetic" k2="-1" k3="1"/>
<feColorMatrix type="matrix" values="0 0 0 0 0.901961 0 0 0 0 0.901961 0 0 0 0 0.901961 0 0 0 1 0"/>
<feBlend mode="normal" in2="shape" result="effect1_innerShadow_1681_229561"/>
</filter>
<clipPath id="clip0_1681_229561">
<rect width="424.787" height="307.817" fill="white"/>
</clipPath>
<clipPath id="clip1_1681_229561">
<rect x="184.258" y="53.8672" width="69.9585" height="69.9585" rx="34.9793" fill="white"/>
</clipPath>
<clipPath id="clip2_1681_229561">
<rect x="131.914" y="221.391" width="44.9829" height="44.9829" rx="22.4914" fill="white"/>
</clipPath>
<clipPath id="clip3_1681_229561">
<rect x="217.438" y="174.203" width="69.9585" height="69.9585" rx="34.9793" fill="white"/>
</clipPath>
<clipPath id="clip4_1681_229561">
<rect x="96.9141" y="120.023" width="69.9585" height="69.9585" rx="34.9793" fill="white"/>
</clipPath>
<clipPath id="clip5_1681_229561">
<rect x="282.465" y="109.203" width="46.9185" height="46.9185" rx="23.4593" fill="white"/>
</clipPath>
</defs>
</svg>
